<svg xmlns="http://www.w3.org/2000/svg" version="1.1" xmlns:xlink="http://www.w3.org/1999/xlink" xmlns:svgjs="http://svgjs.dev/svgjs" width="124" height="40"><svg width="124" height="40" viewBox="0 0 124 40" fill="none" xmlns="http://www.w3.org/2000/svg">
<g clip-path="url(#clip0_933_289)">
<path d="M35.7042 36.9722H38.4166L39.9074 26.9237H42.1361L42.4502 24.8098H35.0561L34.7419 26.9237H37.195L35.7042 36.9722Z" fill="#1A1919"></path>
<path d="M69.0252 32.3615C68.7709 34.0413 67.8186 35.0472 66.4524 35.0472C65.7245 35.0472 65.3057 34.8328 65.3057 34.8328L66.0436 29.8238C66.0436 29.8238 66.4873 29.64 67.1554 29.64C68.4119 29.64 69.3243 30.3957 69.0252 32.3615ZM67.4895 27.5006C66.0785 27.5006 64.5877 27.7508 63.6852 28.1337L61.9352 40.0051H64.5528L65.0065 36.9262C65.0065 36.9262 65.5998 37.1304 66.5272 37.1304C69.3891 37.1304 71.199 35.4199 71.6627 32.29C72.0865 29.4051 70.6805 27.5057 67.4945 27.5057" fill="#1A1919"></path>
<path d="M52.3024 32.3615C52.0481 34.0413 51.0958 35.0472 49.7296 35.0472C49.0017 35.0472 48.5829 34.8328 48.5829 34.8328L49.3208 29.8238C49.3208 29.8238 49.7645 29.64 50.4327 29.64C51.6891 29.64 52.6015 30.3957 52.3024 32.3615ZM50.7667 27.5006C49.3557 27.5006 47.8649 27.7508 46.9624 28.1337L45.2074 40.0051H47.825L48.2787 36.9262C48.2787 36.9262 48.8721 37.1304 49.7994 37.1304C52.6614 37.1304 54.4762 35.4199 54.9349 32.29C55.3587 29.4051 53.9527 27.5057 50.7667 27.5057" fill="#1A1919"></path>
<path d="M88.58 25.8974L87.3335 34.3426C87.1041 35.8999 87.7722 37.1356 89.7467 37.1356C90.3849 37.1356 91.2375 37.0232 91.5267 36.9262L91.8557 34.6949C91.6314 34.7358 91.2175 34.7511 91.0679 34.7511C90.2353 34.7511 89.9461 34.3579 90.0458 33.7095L90.6342 29.7217H92.5936L92.8878 27.7202H90.9283L91.3422 24.9272L88.58 25.9025V25.8974Z" fill="#1A1919"></path>
<path d="M54.9648 36.7985C54.9648 36.7985 56.3459 37.1866 58.0561 37.1866C60.2649 37.1866 61.7407 36.3288 61.99 34.6796C62.1745 33.4695 61.7507 32.5402 59.8012 31.422C58.819 30.8603 58.3254 30.6459 58.3902 30.1863C58.465 29.6808 59.2478 29.6196 59.6865 29.6196C60.8084 29.6196 62.0947 29.9055 62.0947 29.9055L62.4388 27.8223C62.4388 27.8223 61.282 27.5006 59.5918 27.5006C57.4977 27.5006 56.0219 28.3584 55.7925 29.9361C55.618 31.1412 56.0468 32.1572 57.9464 33.2295C58.8938 33.7656 59.4322 34.0515 59.3525 34.5315C59.2976 34.8685 58.8888 35.0727 58.0112 35.0727C56.67 35.0727 55.3936 34.746 55.3936 34.746L54.9698 36.8036L54.9648 36.7985Z" fill="#1A1919"></path>
<path d="M41.4281 36.9722H44.0457L45.4068 27.7151H42.7942L41.4281 36.9722Z" fill="#1A1919"></path>
<path d="M42.9139 26.9237H45.5265L45.8356 24.8098H43.223L42.9139 26.9237Z" fill="#1A1919"></path>
<path d="M87.7872 27.5364C86.6604 27.4342 84.7159 27.5006 82.9509 28.3176L81.6745 36.9671H84.2921L85.3441 29.834C85.3441 29.834 86.107 29.5175 87.4681 29.6758L87.7872 27.5313V27.5364Z" fill="#1A1919"></path>
<path d="M78.7477 32.3819C78.4236 34.5775 77.3467 35.0523 76.514 35.0523C75.452 35.0523 74.759 34.1843 75.0382 32.3053C75.3623 30.1098 76.4392 29.6349 77.2719 29.6349C78.3488 29.6349 79.0269 30.5029 78.7477 32.3819ZM77.5561 27.5006C74.5645 27.5006 72.8743 29.1447 72.4006 32.3666C72.0716 34.6183 73.0339 37.1866 76.2099 37.1866C79.2014 37.1866 80.8917 35.5425 81.3653 32.3206C81.6944 30.0689 80.6474 27.5006 77.5561 27.5006Z" fill="#1A1919"></path>
<path d="M0 39.5762L15.571 30.0383L25.7822 37.0998L18.1986 12.1777L0 39.5762Z" fill="#1A1919"></path>
<path d="M23.2793 4.88129C23.2793 7.57723 21.1453 9.76257 18.5128 9.76257C15.8802 9.76257 13.7462 7.57723 13.7462 4.88129C13.7462 2.18535 15.8802 0 18.5128 0C21.1453 0 23.2793 2.18535 23.2793 4.88129Z" fill="#1A1919"></path>
<path d="M7.98746 5.11616L15.5711 30.0383L33.7697 2.63977L18.1986 12.1777L7.98746 5.11616Z" fill="#1A1919"></path>
<path d="M49.7246 22.3436H46.7131L41.6175 10.7736C41.1937 9.82895 40.8646 8.80776 40.7799 8.51162H40.725C40.6901 8.99668 40.5904 9.93618 40.4508 11.0391L38.8104 22.3232H35.6444L38.4564 2.84912H41.6026L46.5586 14.1333C46.8428 14.7817 47.2466 15.8846 47.3962 16.3952H47.4511C47.471 16.1808 47.5857 15.0217 47.7801 13.7861L49.3956 2.84912H52.5716L49.7296 22.3334L49.7246 22.3436Z" fill="#1A1919"></path>
<path d="M64.8021 12.8874L63.5157 21.6339C62.2493 22.2211 60.2948 22.6755 58.096 22.6755C54.3466 22.6704 52.4569 21.0569 52.3772 18.6877C52.2027 13.6839 57.6971 13.2295 61.3917 13.0201L61.4964 12.2645C61.5164 12.1011 61.5363 11.9428 61.5313 11.8049C61.4914 10.6459 60.6388 10.1863 59.168 10.1863C57.8268 10.1863 56.1615 10.6152 55.0745 11.0748L54.5411 8.56776C55.8075 8.001 57.732 7.51593 59.7813 7.52104C62.9074 7.52104 64.7921 8.92517 64.8769 11.4884C64.8918 11.9173 64.8769 12.3768 64.7921 12.8874H64.8021ZM55.7427 18.2333C55.7826 19.3362 56.6202 20.0612 58.3503 20.0664C59.1131 20.0664 60.0256 19.9336 60.4145 19.7753L61.0527 15.3638C58.9835 15.471 55.6529 15.5731 55.7427 18.2384V18.2333Z" fill="#1A1919"></path>
<path d="M77.7605 21.6543C76.3894 22.2977 74.6393 22.701 72.615 22.6959C68.726 22.6908 66.5521 20.3982 66.4325 16.7679C66.2779 12.0551 68.7908 7.71506 74.0759 7.71506C74.9434 7.71506 75.791 7.87845 76.2198 8.04184L77.212 1.21008H80.8219L77.7605 21.6543ZM74.1656 10.4927C71.0345 10.4927 69.8977 14.2609 69.9725 16.6607C70.0373 18.5703 71.0195 19.8111 72.8095 19.8162C73.4377 19.8162 74.1706 19.6579 74.5097 19.4945L75.806 10.7633C75.5118 10.6306 74.7988 10.4927 74.1656 10.4927Z" fill="#1A1919"></path>
<path d="M92.6535 12.9129L91.3422 21.6747C90.0708 22.267 88.1063 22.7214 85.8975 22.7163C82.1332 22.7112 80.2385 21.0926 80.1637 18.7235C80.0042 13.7094 85.5186 13.255 89.2281 13.0457L89.3378 12.29C89.3578 12.1266 89.3827 11.9683 89.3777 11.8305C89.3428 10.6714 88.4852 10.2119 87.0094 10.2068C85.6632 10.2068 83.9929 10.6357 82.901 11.0952L82.3725 8.58307C83.6439 8.01631 85.5784 7.53124 87.6376 7.53124C90.7788 7.53124 92.6684 8.94048 92.7432 11.5037C92.7582 11.9377 92.7432 12.3972 92.6535 12.9078V12.9129ZM83.5442 18.2691C83.5791 19.3719 84.4167 20.1021 86.1568 20.1072C86.9197 20.1072 87.8371 19.9744 88.226 19.811L88.8791 15.3893C86.8 15.4965 83.4594 15.5986 83.5442 18.2691ZM89.5173 6.18327H86.9595L89.3528 2.61421C89.9661 2.04745 90.8037 1.80237 91.4917 1.80237C92.1798 1.80237 92.823 2.09851 92.8878 2.61421L89.5123 6.18327H89.5173Z" fill="#1A1919"></path>
<path d="M103.981 11.1105C103.468 10.7582 102.75 10.5438 101.932 10.5438C99.1053 10.5438 97.9136 13.9443 97.9884 16.4003C98.0532 18.5295 99.1651 19.6119 100.536 19.6119C101.274 19.6119 102.112 19.3158 102.73 18.9124L103.473 21.7462C102.541 22.3641 101.284 22.7419 99.6786 22.7368C96.7519 22.7368 94.3936 20.5719 94.2739 16.7679C94.1293 12.0194 96.7369 7.53638 101.808 7.53638C103.418 7.53638 104.645 7.94485 105.457 8.53714L103.977 11.1054L103.981 11.1105Z" fill="#1A1919"></path>
<path d="M108.778 22.4304H105.163L107.377 7.86823H111.002L108.783 22.4304H108.778ZM109.66 5.54502C108.653 5.54502 107.811 4.73317 107.786 3.78347C107.751 2.56314 108.698 1.56238 110.049 1.56238C111.057 1.56238 111.874 2.34869 111.899 3.29329C111.934 4.51362 111.012 5.53991 109.66 5.53991V5.54502Z" fill="#1A1919"></path>
<path d="M123.9 12.9385L122.559 21.7207C121.278 22.313 119.308 22.7674 117.089 22.7674C113.31 22.7623 111.411 21.1386 111.346 18.7644C111.201 13.7401 116.74 13.2857 120.465 13.0712L120.575 12.3155C120.595 12.1522 120.62 11.9888 120.615 11.856C120.58 10.6919 119.722 10.2323 118.241 10.2323C116.89 10.2323 115.21 10.6612 114.113 11.1208L113.589 8.60352C114.871 8.03676 116.815 7.5517 118.879 7.5517C122.031 7.5517 123.925 8.96094 123.995 11.5343C124.005 11.9683 123.995 12.4279 123.9 12.9436V12.9385ZM114.736 18.3099C114.766 19.4179 115.609 20.1481 117.354 20.1481C118.122 20.1481 119.044 20.0153 119.433 19.8519L120.101 15.42C118.012 15.5272 114.656 15.6293 114.731 18.3048L114.736 18.3099Z" fill="#1A1919"></path>
</g>
<defs>
<clipPath id="SvgjsClipPath1001">
<rect width="124" height="40" fill="white"></rect>
</clipPath>
</defs>
</svg><style>@media (prefers-color-scheme: light) { :root { filter: none; } }
@media (prefers-color-scheme: dark) { :root { filter: none; } }
</style></svg>