<svg width="32" height="32" viewBox="0 0 32 32" fill="none" xmlns="http://www.w3.org/2000/svg">
<g clip-path="url(#clip0_953_220)">
<path d="M25.3333 17.3333C24.9797 17.3333 24.6406 17.4738 24.3905 17.7239C24.1405 17.9739 24 18.313 24 18.6667V22.6667H20C19.2928 22.6667 18.6145 22.9476 18.1144 23.4477C17.6143 23.9478 17.3333 24.6261 17.3333 25.3333V29.3333H4C3.64638 29.3333 3.30724 29.1929 3.05719 28.9428C2.80714 28.6928 2.66667 28.3536 2.66667 28V4C2.66667 3.64638 2.80714 3.30724 3.05719 3.05719C3.30724 2.80714 3.64638 2.66667 4 2.66667H13.3333C13.687 2.66667 14.0261 2.52619 14.2761 2.27614C14.5262 2.02609 14.6667 1.68696 14.6667 1.33333C14.6667 0.979711 14.5262 0.640573 14.2761 0.390524C14.0261 0.140476 13.687 0 13.3333 0L4 0C2.93913 0 1.92172 0.421427 1.17157 1.17157C0.421427 1.92172 0 2.93913 0 4L0 28C0 29.0609 0.421427 30.0783 1.17157 30.8284C1.92172 31.5786 2.93913 32 4 32H17.3333C17.6836 32.0009 18.0307 31.9324 18.3543 31.7983C18.6779 31.6641 18.9717 31.4671 19.2187 31.2187L25.8853 24.552C26.3845 24.0514 26.6653 23.3736 26.6667 22.6667V18.6667C26.6667 18.313 26.5262 17.9739 26.2761 17.7239C26.0261 17.4738 25.687 17.3333 25.3333 17.3333Z" fill="#92B93C"/>
<path d="M11.64 16.6946C11.5259 16.7259 11.4222 16.7869 11.3394 16.8715C11.2567 16.9561 11.198 17.0612 11.1693 17.176L10.4267 20.1586L8.75733 21.828C8.57508 22.0165 8.47417 22.269 8.47632 22.5312C8.47848 22.7934 8.58353 23.0443 8.76885 23.2298C8.95417 23.4153 9.20493 23.5206 9.46713 23.523C9.72933 23.5254 9.98198 23.4247 10.1707 23.2426L11.856 21.56L14.7987 20.82C14.9127 20.7914 15.0172 20.7332 15.1015 20.6513C15.1858 20.5693 15.2469 20.4665 15.2787 20.3533C15.3104 20.2398 15.3114 20.1198 15.2817 20.0058C15.2519 19.8917 15.1924 19.7876 15.1093 19.704L12.2893 16.8666C12.206 16.7831 12.102 16.7231 11.9879 16.6929C11.8738 16.6627 11.7538 16.6633 11.64 16.6946Z" fill="#92B93C"/>
<path d="M31.6093 0.390626C31.3593 0.140665 31.0202 0.000244141 30.6667 0.000244141C30.3131 0.000244141 29.974 0.140665 29.724 0.390626L28.524 1.59063C28.1819 1.49962 27.8251 1.47728 27.4743 1.52488C27.1234 1.57248 26.7855 1.68908 26.48 1.86796L26.4107 1.79996C25.6599 1.05399 24.6441 0.63597 23.5857 0.637469C22.5273 0.638969 21.5127 1.05986 20.764 1.80796L15.948 6.61463C15.698 6.86466 15.5576 7.20374 15.5576 7.55729C15.5576 7.91084 15.698 8.24992 15.948 8.49996C16.2001 8.74647 16.5387 8.8845 16.8913 8.8845C17.2439 8.8845 17.5825 8.74647 17.8347 8.49996L22.6667 3.68129C22.9175 3.43541 23.2553 3.29847 23.6066 3.30021C23.9579 3.30196 24.2943 3.44226 24.5427 3.69063L23.6 4.63329C23.475 4.75831 23.4048 4.92785 23.4048 5.10463C23.4048 5.2814 23.475 5.45094 23.6 5.57596L26.424 8.39996C26.549 8.52494 26.7186 8.59515 26.8953 8.59515C27.0721 8.59515 27.2416 8.52494 27.3667 8.39996L29.724 6.04263C30.0544 5.71178 30.2921 5.29987 30.413 4.84821C30.534 4.39654 30.5341 3.92101 30.4133 3.46929L31.6133 2.26929C31.8607 2.019 31.9991 1.68106 31.9984 1.32914C31.9976 0.977213 31.8578 0.639858 31.6093 0.390626Z" fill="#92B93C"/>
<path d="M16.5333 18.96C16.71 18.9596 16.8793 18.8891 17.004 18.764L25.4787 10.2906C25.6036 10.1656 25.6739 9.99607 25.6739 9.81929C25.6739 9.64251 25.6036 9.47298 25.4787 9.34796L22.6533 6.51862C22.526 6.39803 22.3573 6.33081 22.182 6.33081C22.0066 6.33081 21.838 6.39803 21.7107 6.51862L13.236 14.9933C13.111 15.1183 13.0408 15.2878 13.0408 15.4646C13.0408 15.6414 13.111 15.8109 13.236 15.936L16.064 18.764C16.1884 18.8887 16.3571 18.9592 16.5333 18.96Z" fill="#92B93C"/>
</g>
<defs>
<clipPath id="clip0_953_220">
<rect width="32" height="32" fill="white"/>
</clipPath>
</defs>
</svg>
