<svg width="32" height="32" viewBox="0 0 32 32" fill="none" xmlns="http://www.w3.org/2000/svg">
<g clip-path="url(#clip0_953_186)">
<path d="M31.3334 19.9894H28.6667C28.4899 19.9894 28.3203 19.9192 28.1953 19.7942C28.0703 19.6691 28 19.4996 28 19.3228V18.6561C28 18.4793 28.0703 18.3097 28.1953 18.1847C28.3203 18.0597 28.4899 17.9894 28.6667 17.9894H30.6667C30.7834 17.9894 30.8981 17.9587 30.9993 17.9004C31.1004 17.8421 31.1845 17.7583 31.2431 17.6573C31.3017 17.5563 31.3327 17.4417 31.3331 17.325C31.3335 17.2083 31.3033 17.0935 31.2454 16.9921L29.5707 14.0588C29.5281 13.9836 29.5059 13.8985 29.5063 13.8121C29.5068 13.7257 29.5299 13.6409 29.5733 13.5662C29.6167 13.4915 29.679 13.4294 29.7539 13.3862C29.8287 13.3431 29.9136 13.3203 30 13.3201C30.119 13.3201 30.2359 13.2882 30.3384 13.2278C30.4409 13.1674 30.5254 13.0807 30.5831 12.9766C30.6408 12.8725 30.6696 12.7549 30.6665 12.6359C30.6633 12.517 30.6284 12.401 30.5654 12.3001L27.232 6.96675C27.1681 6.87623 27.0834 6.80238 26.985 6.75141C26.8867 6.70043 26.7775 6.67383 26.6667 6.67383C26.5559 6.67383 26.4467 6.70043 26.3483 6.75141C26.25 6.80238 26.1653 6.87623 26.1014 6.96675L22.768 12.3001C22.705 12.401 22.67 12.517 22.6669 12.6359C22.6638 12.7549 22.6926 12.8725 22.7503 12.9766C22.8079 13.0807 22.8924 13.1674 22.995 13.2278C23.0975 13.2882 23.2144 13.3201 23.3334 13.3201C23.4198 13.3203 23.5047 13.3431 23.5795 13.3862C23.6544 13.4294 23.7166 13.4915 23.7601 13.5662C23.8035 13.6409 23.8266 13.7257 23.827 13.8121C23.8275 13.8985 23.8053 13.9836 23.7627 14.0588L22.088 16.9921C22.0301 17.0935 21.9998 17.2083 22.0002 17.325C22.0006 17.4417 22.0317 17.5563 22.0903 17.6573C22.1489 17.7583 22.2329 17.8421 22.3341 17.9004C22.4353 17.9587 22.5499 17.9894 22.6667 17.9894H24.6667C24.8435 17.9894 25.0131 18.0597 25.1381 18.1847C25.2631 18.3097 25.3334 18.4793 25.3334 18.6561V19.7628C25.3333 19.9105 25.2842 20.0541 25.1937 20.1709C25.1032 20.2877 24.9764 20.3711 24.8334 20.4081C22.2209 21.1486 19.792 22.4271 17.7027 24.1614C17.6563 24.1988 17.6208 24.2478 17.5998 24.3035C17.5788 24.3592 17.5731 24.4196 17.5833 24.4782C17.5935 24.5369 17.6192 24.5917 17.6578 24.6371C17.6964 24.6824 17.7464 24.7166 17.8027 24.7361C20.7246 25.6457 23.3445 27.332 25.3827 29.6148C25.782 30.0943 26.0004 30.6987 26 31.3228C26 31.4996 26.0703 31.6691 26.1953 31.7942C26.3203 31.9192 26.4899 31.9894 26.6667 31.9894H31.3334C31.5102 31.9894 31.6797 31.9192 31.8048 31.7942C31.9298 31.6691 32 31.4996 32 31.3228V20.6561C32 20.4793 31.9298 20.3097 31.8048 20.1847C31.6797 20.0597 31.5102 19.9894 31.3334 19.9894Z" fill="#92B93C"/>
<path d="M11.2733 25.4147C11.1071 25.3997 10.9526 25.3228 10.8403 25.1994C10.7279 25.076 10.666 24.9149 10.6667 24.748V22.656C10.6667 22.4792 10.7369 22.3096 10.8619 22.1846C10.987 22.0596 11.1565 21.9893 11.3333 21.9893H15.3867C15.6307 21.9894 15.87 21.9225 16.0786 21.7959C16.2872 21.6693 16.457 21.4879 16.5697 21.2715C16.6823 21.055 16.7334 20.8118 16.7173 20.5683C16.7013 20.3249 16.6187 20.0905 16.4787 19.8907L13.7613 16.0093C13.7154 15.944 13.6883 15.8673 13.683 15.7876C13.6777 15.7079 13.6944 15.6283 13.7313 15.5574C13.7682 15.4866 13.8238 15.4272 13.8921 15.3858C13.9604 15.3444 14.0388 15.3226 14.1187 15.3227C14.3577 15.3228 14.5923 15.2586 14.798 15.137C15.0037 15.0153 15.1729 14.8406 15.2879 14.6311C15.403 14.4216 15.4596 14.1851 15.4519 13.9462C15.4441 13.7073 15.3723 13.4749 15.244 13.2733L12.2267 8.53334C12.1411 8.39742 12.1074 8.23517 12.1319 8.07643C12.1564 7.91769 12.2374 7.77313 12.36 7.66934C12.5993 7.46443 12.7582 7.18143 12.8087 6.8705C12.8593 6.55957 12.7981 6.24079 12.636 5.97067L9.23867 0.312006C9.175 0.219057 9.08963 0.143025 8.98997 0.0904894C8.8903 0.0379539 8.77933 0.010498 8.66667 0.010498C8.554 0.010498 8.44303 0.0379539 8.34337 0.0904894C8.2437 0.143025 8.15834 0.219057 8.09467 0.312006L4.70133 5.96934C4.53926 6.23946 4.47807 6.55823 4.52859 6.86916C4.57911 7.18009 4.73808 7.46309 4.97733 7.66801C5.10025 7.77186 5.18146 7.91667 5.20596 8.07572C5.23047 8.23476 5.19662 8.3973 5.11067 8.53334L2.088 13.2747C1.95995 13.4764 1.88844 13.7087 1.88095 13.9475C1.87345 14.1863 1.93025 14.4227 2.0454 14.632C2.16055 14.8413 2.32982 15.0159 2.53552 15.1374C2.74121 15.2589 2.97577 15.3229 3.21467 15.3227C3.29454 15.3226 3.37291 15.3444 3.44122 15.3858C3.50953 15.4272 3.56516 15.4866 3.60203 15.5574C3.6389 15.6283 3.6556 15.7079 3.6503 15.7876C3.64501 15.8673 3.61792 15.944 3.572 16.0093L0.854667 19.8907C0.714613 20.0905 0.63207 20.3249 0.616026 20.5683C0.599982 20.8118 0.651054 21.055 0.763678 21.2715C0.876302 21.4879 1.04616 21.6693 1.25475 21.7959C1.46334 21.9225 1.70267 21.9894 1.94667 21.9893H6C6.17681 21.9893 6.34638 22.0596 6.4714 22.1846C6.59643 22.3096 6.66667 22.4792 6.66667 22.656V24.968C6.66639 25.1226 6.61237 25.2724 6.51386 25.3915C6.41535 25.5107 6.27848 25.592 6.12667 25.6213C4.03412 26.0397 2.04994 26.8839 0.297333 28.1013C0.205932 28.1622 0.130968 28.2446 0.0790973 28.3414C0.0272269 28.4381 5.67339e-05 28.5462 0 28.656L0 31.3227C0 31.4995 0.0702379 31.6691 0.195262 31.7941C0.320286 31.9191 0.489856 31.9893 0.666667 31.9893H23.3333C23.4603 31.9895 23.5846 31.9534 23.6917 31.8854C23.7988 31.8173 23.8843 31.7201 23.9381 31.6051C23.9918 31.4902 24.0117 31.3622 23.9953 31.2364C23.9788 31.1105 23.9268 30.992 23.8453 30.8947C20.7493 27.18 15.148 25.7653 11.2733 25.4147Z" fill="#92B93C"/>
</g>
<defs>
<clipPath id="clip0_953_186">
<rect width="32" height="32" fill="white"/>
</clipPath>
</defs>
</svg>
