<svg width="32" height="32" viewBox="0 0 32 32" fill="none" xmlns="http://www.w3.org/2000/svg">
<g clip-path="url(#clip0_953_139)">
<path d="M12.452 21.4666C12.5505 21.4971 12.6548 21.5044 12.7566 21.4879C12.8584 21.4713 12.955 21.4313 13.0387 21.3711C13.1225 21.3109 13.1911 21.232 13.2392 21.1408C13.2873 21.0495 13.3136 20.9484 13.316 20.8453C13.4102 18.9364 13.8753 17.0642 14.6853 15.3333C14.7365 15.2276 14.7589 15.1103 14.7503 14.9933C14.7416 14.8762 14.7022 14.7635 14.636 14.6666C13.5404 13.0269 12.0576 11.6825 10.3188 10.7522C8.57998 9.822 6.63869 9.33464 4.66667 9.33325C4.48986 9.33325 4.32029 9.40349 4.19526 9.52851C4.07024 9.65354 4 9.82311 4 9.99992C4.00267 12.5625 4.82418 15.0572 6.34464 17.12C7.86511 19.1828 10.005 20.7057 12.452 21.4666Z" fill="#92B93C"/>
<path d="M11.9999 9.40939C13.4355 10.2953 14.7 11.432 15.7333 12.7654C15.7643 12.8068 15.8046 12.8404 15.8509 12.8635C15.8972 12.8867 15.9482 12.8987 15.9999 12.8987C16.0516 12.8984 16.1026 12.8862 16.1488 12.8631C16.195 12.84 16.2354 12.8066 16.2666 12.7654C17.3001 11.4311 18.5645 10.2931 19.9999 9.40539C20.1019 9.34257 20.185 9.25346 20.2406 9.14741C20.2962 9.04136 20.3223 8.9223 20.3159 8.80272C20.1487 5.55241 18.7763 2.48105 16.4666 0.188057C16.3393 0.0674592 16.1706 0.000244141 15.9953 0.000244141C15.8199 0.000244141 15.6512 0.0674592 15.5239 0.188057C13.222 2.48671 11.8551 5.5579 11.6879 8.80672C11.6812 8.92591 11.7066 9.04472 11.7615 9.15073C11.8164 9.25674 11.8987 9.34607 11.9999 9.40939Z" fill="#92B93C"/>
<path d="M15.3334 21.3333V24.3333C15.3334 24.5985 15.4387 24.8528 15.6263 25.0404C15.8138 25.2279 16.0682 25.3333 16.3334 25.3333C16.5986 25.3333 16.8529 25.2279 17.0405 25.0404C17.228 24.8528 17.3334 24.5985 17.3334 24.3333V22.5079C17.3333 22.3493 17.3898 22.1958 17.4926 22.0751C17.5955 21.9544 17.7381 21.8743 17.8947 21.8493C20.7116 21.3953 23.275 19.9539 25.1265 17.783C26.9779 15.612 27.9965 12.8531 28 9.99992C28 9.82311 27.9298 9.65354 27.8048 9.52851C27.6798 9.40349 27.5102 9.33325 27.3334 9.33325C24.1519 9.33678 21.1017 10.6022 18.852 12.8519C16.6023 15.1015 15.3369 18.1517 15.3334 21.3333Z" fill="#92B93C"/>
<path d="M30.6667 29.3333C29.8964 29.2911 29.1465 29.0709 28.4756 28.6901C27.8047 28.3093 27.2312 27.7783 26.8 27.1387C26.6661 26.999 26.5049 26.8885 26.3265 26.8139C26.148 26.7393 25.9561 26.7023 25.7627 26.7052C25.5692 26.7081 25.3785 26.7508 25.2023 26.8306C25.0261 26.9105 24.8683 27.0258 24.7387 27.1693C24.3078 27.8028 23.736 28.3279 23.0681 28.7034C22.4003 29.0788 21.6545 29.2944 20.8893 29.3333C20.119 29.2913 19.369 29.0712 18.6981 28.6904C18.0272 28.3096 17.4537 27.7784 17.0227 27.1387C16.8888 26.9987 16.7275 26.8879 16.5488 26.8132C16.3702 26.7385 16.178 26.7015 15.9844 26.7045C15.7907 26.7075 15.5998 26.7505 15.4235 26.8307C15.2473 26.9109 15.0895 27.0266 14.96 27.1707C14.529 27.8039 13.9571 28.3287 13.2892 28.7039C12.6214 29.0792 11.8757 29.2946 11.1107 29.3333C10.3404 29.2911 9.59046 29.0709 8.91959 28.6901C8.24872 28.3093 7.67519 27.7783 7.244 27.1387C7.11014 26.9987 6.94882 26.8879 6.77015 26.8132C6.59149 26.7385 6.39932 26.7015 6.20568 26.7045C6.01205 26.7075 5.82112 26.7505 5.64486 26.8307C5.46859 26.9109 5.31079 27.0266 5.18133 27.1707C4.75057 27.8039 4.17895 28.3287 3.51132 28.7039C2.84369 29.0792 2.0982 29.2946 1.33333 29.3333C0.979711 29.3333 0.640573 29.4738 0.390524 29.7239C0.140476 29.9739 0 30.3131 0 30.6667C0 31.0203 0.140476 31.3594 0.390524 31.6095C0.640573 31.8595 0.979711 32 1.33333 32C2.97097 31.9999 4.55414 31.4118 5.79467 30.3427C5.91436 30.2432 6.06506 30.1888 6.22067 30.1888C6.37627 30.1888 6.52697 30.2432 6.64667 30.3427C7.88769 31.4118 9.47129 31.9999 11.1093 31.9999C12.7474 31.9999 14.331 31.4118 15.572 30.3427C15.6917 30.2432 15.8424 30.1888 15.998 30.1888C16.1536 30.1888 16.3043 30.2432 16.424 30.3427C17.6657 31.4137 19.2509 32.0029 20.8907 32.0029C22.5304 32.0029 24.1156 31.4137 25.3573 30.3427C25.477 30.2432 25.6277 30.1888 25.7833 30.1888C25.9389 30.1888 26.0896 30.2432 26.2093 30.3427C27.4491 31.4103 29.0305 31.9983 30.6667 32C31.0203 32 31.3594 31.8595 31.6095 31.6095C31.8595 31.3594 32 31.0203 32 30.6667C32 30.3131 31.8595 29.9739 31.6095 29.7239C31.3594 29.4738 31.0203 29.3333 30.6667 29.3333Z" fill="#92B93C"/>
</g>
<defs>
<clipPath id="clip0_953_139">
<rect width="32" height="32" fill="white"/>
</clipPath>
</defs>
</svg>
