<svg width="32" height="32" viewBox="0 0 32 32" fill="none" xmlns="http://www.w3.org/2000/svg">
<g clip-path="url(#clip0_953_196)">
<path d="M21.156 13.9454C21.2605 13.9002 21.3518 13.829 21.421 13.7386C21.4902 13.6482 21.5351 13.5416 21.5515 13.4288C21.5678 13.3161 21.5549 13.2011 21.5142 13.0948C21.4734 12.9885 21.4061 12.8943 21.3187 12.8214C20.7338 12.3339 20.084 11.93 19.388 11.6214C19.3327 11.5975 19.285 11.5591 19.2499 11.5102C19.2148 11.4613 19.1937 11.4038 19.1887 11.3438C19.1838 11.2838 19.1953 11.2236 19.2219 11.1696C19.2486 11.1157 19.2894 11.0699 19.34 11.0374C20.4295 10.3301 21.2611 9.28962 21.7108 8.07106C22.1605 6.8525 22.2043 5.5212 21.8355 4.27576C21.4667 3.03031 20.7051 1.93748 19.6644 1.16027C18.6237 0.38306 17.3596 -0.0368652 16.0607 -0.0368652C14.7618 -0.0368652 13.4977 0.38306 12.4569 1.16027C11.4162 1.93748 10.6547 3.03031 10.2859 4.27576C9.91706 5.5212 9.96079 6.8525 10.4105 8.07106C10.8602 9.28962 11.6919 10.3301 12.7813 11.0374C12.8316 11.0701 12.8721 11.1158 12.8986 11.1697C12.925 11.2235 12.9365 11.2835 12.9317 11.3433C12.9269 11.4031 12.9061 11.4605 12.8714 11.5094C12.8367 11.5584 12.7895 11.597 12.7347 11.6214C12.0217 11.9363 11.3573 12.3511 10.7613 12.8534C10.675 12.9263 10.6087 13.0199 10.5685 13.1255C10.5283 13.2311 10.5156 13.3452 10.5316 13.457C10.5476 13.5688 10.5918 13.6748 10.6599 13.7649C10.7281 13.855 10.8181 13.9263 10.9213 13.9721C12.1544 14.5233 13.2291 15.3756 14.0467 16.4507C14.1088 16.5335 14.1893 16.6007 14.2819 16.647C14.3744 16.6933 14.4765 16.7174 14.58 16.7174H17.4253C17.5288 16.7174 17.6309 16.6933 17.7235 16.647C17.816 16.6007 17.8966 16.5335 17.9587 16.4507C18.7929 15.3562 19.8937 14.4937 21.156 13.9454ZM12.8987 4.93338C12.9156 4.88598 12.9432 4.84305 12.9791 4.8078C13.0151 4.77255 13.0585 4.74591 13.1063 4.72987C13.154 4.71383 13.2048 4.70882 13.2547 4.7152C13.3046 4.72158 13.3525 4.73919 13.3947 4.76672C14.6524 5.58765 16.122 6.02454 17.624 6.02405C18.0875 6.02183 18.5499 5.9772 19.0053 5.89072C19.0548 5.88161 19.1056 5.8838 19.1541 5.89712C19.2025 5.91044 19.2473 5.93454 19.2852 5.96762C19.323 6.00071 19.3528 6.04192 19.3725 6.08817C19.3922 6.13442 19.4011 6.18452 19.3987 6.23472C19.3499 7.10787 18.9615 7.92731 18.3166 8.51792C17.6716 9.10853 16.8212 9.42347 15.9472 9.39544C15.0731 9.36741 14.2447 8.99863 13.6389 8.3679C13.0331 7.73717 12.6981 6.89454 12.7053 6.02005C12.7066 5.64939 12.772 5.28174 12.8987 4.93338Z" fill="#92B93C"/>
<path d="M13.6893 21.3039C13.6949 20.2586 13.4283 19.23 12.9158 18.319C12.4033 17.408 11.6625 16.646 10.7663 16.1081C9.87009 15.5702 8.8493 15.2747 7.80432 15.2508C6.75933 15.227 5.72612 15.4755 4.80627 15.9719C3.88643 16.4684 3.11163 17.1957 2.55805 18.0823C2.00447 18.9689 1.69118 19.9844 1.64898 21.0288C1.60678 22.0732 1.83712 23.1106 2.31736 24.039C2.7976 24.9674 3.51119 25.7549 4.38798 26.3239C4.43787 26.3569 4.478 26.4027 4.50419 26.4564C4.53039 26.5102 4.54169 26.57 4.53693 26.6297C4.53216 26.6893 4.5115 26.7465 4.4771 26.7955C4.4427 26.8444 4.39581 26.8832 4.34132 26.9079C3.83091 27.1331 3.34521 27.4106 2.89198 27.7359C1.86407 28.4657 1.01855 29.423 0.421318 30.5332C0.340625 30.6853 0.300633 30.8557 0.305226 31.0279C0.309819 31.2 0.358841 31.368 0.447531 31.5156C0.536222 31.6632 0.661568 31.7854 0.8114 31.8702C0.961233 31.9551 1.13046 31.9997 1.30265 31.9999H14.0307C14.2028 31.9997 14.3721 31.9551 14.5219 31.8702C14.6717 31.7854 14.7971 31.6632 14.8858 31.5156C14.9745 31.368 15.0235 31.2 15.0281 31.0279C15.0327 30.8557 14.9927 30.6853 14.912 30.5332C14.3151 29.4221 13.4695 28.4638 12.4413 27.7332C11.9881 27.4079 11.5024 27.1304 10.992 26.9052C10.9372 26.8809 10.8899 26.8422 10.8552 26.7933C10.8205 26.7443 10.7997 26.6869 10.7949 26.6271C10.7902 26.5673 10.8016 26.5073 10.8281 26.4535C10.8545 26.3997 10.895 26.354 10.9453 26.3212C11.7849 25.7801 12.4757 25.0376 12.955 24.1613C13.4342 23.285 13.6867 22.3027 13.6893 21.3039ZM4.50398 20.2132C4.52097 20.1658 4.54848 20.1229 4.58444 20.0876C4.62039 20.0524 4.66387 20.0258 4.7116 20.0097C4.75933 19.9937 4.81008 19.9887 4.86002 19.995C4.90997 20.0014 4.95782 20.019 4.99998 20.0466C6.25775 20.8675 7.72735 21.3044 9.22932 21.3039C9.69287 21.3017 10.1552 21.257 10.6107 21.1706C10.6601 21.162 10.7109 21.1644 10.7593 21.1778C10.8077 21.1912 10.8526 21.2151 10.8907 21.2479C10.9284 21.2809 10.9582 21.3221 10.9778 21.3683C10.9974 21.4144 11.0064 21.4644 11.004 21.5146C10.9552 22.3877 10.5668 23.2072 9.92188 23.7978C9.27694 24.3884 8.42657 24.7033 7.55251 24.6753C6.67844 24.6473 5.85001 24.2785 5.24423 23.6477C4.63846 23.017 4.3034 22.1744 4.31065 21.2999C4.31194 20.9292 4.37735 20.5616 4.50398 20.2132Z" fill="#92B93C"/>
<path d="M29.108 27.7333C28.6548 27.408 28.1691 27.1305 27.6587 26.9053C27.6038 26.8809 27.5566 26.8422 27.5219 26.7933C27.4872 26.7443 27.4664 26.6869 27.4616 26.6271C27.4568 26.5673 27.4683 26.5074 27.4948 26.4535C27.5212 26.3997 27.5617 26.354 27.612 26.3213C28.7016 25.6141 29.5334 24.5736 29.9833 23.3551C30.4332 22.1365 30.477 20.8051 30.1082 19.5596C29.7395 18.3141 28.978 17.2211 27.9372 16.4438C26.8965 15.6666 25.6323 15.2466 24.3333 15.2466C23.0344 15.2466 21.7702 15.6666 20.7295 16.4438C19.6887 17.2211 18.9272 18.3141 18.5584 19.5596C18.1897 20.8051 18.2335 22.1365 18.6834 23.3551C19.1333 24.5736 19.9651 25.6141 21.0547 26.3213C21.1046 26.3543 21.1447 26.4 21.1709 26.4538C21.1971 26.5076 21.2084 26.5674 21.2036 26.627C21.1988 26.6867 21.1782 26.7439 21.1438 26.7928C21.1094 26.8418 21.0625 26.8806 21.008 26.9053C20.4976 27.1305 20.0119 27.408 19.5587 27.7333C18.5304 28.4638 17.6849 29.4221 17.088 30.5333C17.0073 30.6854 16.9673 30.8558 16.9719 31.0279C16.9765 31.2 17.0255 31.3681 17.1142 31.5156C17.2029 31.6632 17.3283 31.7854 17.4781 31.8703C17.6279 31.9551 17.7971 31.9998 17.9693 31.9999H30.6973C30.8695 31.9998 31.0388 31.9551 31.1886 31.8703C31.3384 31.7854 31.4638 31.6632 31.5525 31.5156C31.6412 31.3681 31.6902 31.2 31.6948 31.0279C31.6994 30.8558 31.6594 30.6854 31.5787 30.5333C30.9818 29.4221 30.1362 28.4638 29.108 27.7333ZM21.1707 20.2133C21.1877 20.1659 21.2152 20.1229 21.2511 20.0877C21.2871 20.0524 21.3306 20.0258 21.3783 20.0097C21.426 19.9937 21.4768 19.9887 21.5267 19.9951C21.5767 20.0015 21.6245 20.0191 21.6667 20.0466C22.9244 20.8675 24.394 21.3044 25.896 21.3039C26.3596 21.3017 26.8219 21.2571 27.2773 21.1706C27.3268 21.162 27.3776 21.1645 27.426 21.1779C27.4744 21.1912 27.5193 21.2152 27.5573 21.2479C27.5951 21.281 27.6249 21.3221 27.6445 21.3683C27.6641 21.4145 27.6731 21.4645 27.6707 21.5146C27.6219 22.3877 27.2335 23.2072 26.5886 23.7978C25.9436 24.3884 25.0933 24.7034 24.2192 24.6753C23.3451 24.6473 22.5167 24.2785 21.9109 23.6478C21.3051 23.0171 20.9701 22.1744 20.9773 21.2999C20.9786 20.9293 21.044 20.5616 21.1707 20.2133Z" fill="#92B93C"/>
</g>
<defs>
<clipPath id="clip0_953_196">
<rect width="32" height="32" fill="white"/>
</clipPath>
</defs>
</svg>
