<svg width="32" height="32" viewBox="0 0 32 32" fill="none" xmlns="http://www.w3.org/2000/svg">
<g clip-path="url(#clip0_953_207)">
<path d="M1.66665 22.6666H6.33332C6.37714 22.6668 6.42056 22.6583 6.46108 22.6416C6.50161 22.6249 6.53842 22.6003 6.56941 22.5693C6.6004 22.5384 6.62495 22.5015 6.64163 22.461C6.65832 22.4205 6.66682 22.3771 6.66665 22.3333V19.6666C6.66665 19.313 6.52617 18.9738 6.27612 18.7238C6.02608 18.4737 5.68694 18.3333 5.33332 18.3333H2.66665C2.31303 18.3333 1.97389 18.4737 1.72384 18.7238C1.47379 18.9738 1.33332 19.313 1.33332 19.6666V22.3333C1.33314 22.3771 1.34164 22.4205 1.35833 22.461C1.37502 22.5015 1.39957 22.5384 1.43055 22.5693C1.46154 22.6003 1.49836 22.6249 1.53888 22.6416C1.5794 22.6583 1.62283 22.6668 1.66665 22.6666Z" fill="#92B93C"/>
<path d="M10.6666 11.6667C10.313 11.6667 9.97389 11.8072 9.72384 12.0573C9.47379 12.3073 9.33332 12.6465 9.33332 13.0001V22.3334C9.33314 22.3772 9.34164 22.4207 9.35833 22.4612C9.37502 22.5017 9.39957 22.5385 9.43055 22.5695C9.46154 22.6005 9.49836 22.625 9.53888 22.6417C9.5794 22.6584 9.62283 22.6669 9.66665 22.6667H14.3333C14.3771 22.6669 14.4206 22.6584 14.4611 22.6417C14.5016 22.625 14.5384 22.6005 14.5694 22.5695C14.6004 22.5385 14.6249 22.5017 14.6416 22.4612C14.6583 22.4207 14.6668 22.3772 14.6666 22.3334V13.0001C14.6666 12.6465 14.5262 12.3073 14.2761 12.0573C14.0261 11.8072 13.6869 11.6667 13.3333 11.6667H10.6666Z" fill="#92B93C"/>
<path d="M18.6666 14.3333C18.313 14.3333 17.9739 14.4737 17.7238 14.7238C17.4738 14.9738 17.3333 15.313 17.3333 15.6666V22.3333C17.3331 22.3771 17.3416 22.4205 17.3583 22.461C17.375 22.5015 17.3996 22.5384 17.4306 22.5693C17.4615 22.6003 17.4984 22.6249 17.5389 22.6416C17.5794 22.6583 17.6228 22.6668 17.6666 22.6666H22.3333C22.3771 22.6668 22.4206 22.6583 22.4611 22.6416C22.5016 22.6249 22.5384 22.6003 22.5694 22.5693C22.6004 22.5384 22.6249 22.5015 22.6416 22.461C22.6583 22.4205 22.6668 22.3771 22.6666 22.3333V15.6666C22.6666 15.313 22.5262 14.9738 22.2761 14.7238C22.0261 14.4737 21.6869 14.3333 21.3333 14.3333H18.6666Z" fill="#92B93C"/>
<path d="M25.6666 22.6667H30.3333C30.3771 22.6668 30.4206 22.6583 30.4611 22.6417C30.5016 22.625 30.5384 22.6004 30.5694 22.5694C30.6004 22.5384 30.6249 22.5016 30.6416 22.4611C30.6583 22.4206 30.6668 22.3772 30.6666 22.3333V6.33333C30.6666 5.97971 30.5262 5.64057 30.2761 5.39052C30.0261 5.14048 29.6869 5 29.3333 5H26.6666C26.313 5 25.9739 5.14048 25.7238 5.39052C25.4738 5.64057 25.3333 5.97971 25.3333 6.33333V22.3333C25.3331 22.3772 25.3416 22.4206 25.3583 22.4611C25.375 22.5016 25.3996 22.5384 25.4306 22.5694C25.4615 22.6004 25.4984 22.625 25.5389 22.6417C25.5794 22.6583 25.6228 22.6668 25.6666 22.6667Z" fill="#92B93C"/>
<path d="M1.33333 26.9999H30.6667C31.0203 26.9999 31.3594 26.8594 31.6095 26.6094C31.8595 26.3593 32 26.0202 32 25.6666C32 25.313 31.8595 24.9738 31.6095 24.7238C31.3594 24.4737 31.0203 24.3333 30.6667 24.3333H1.33333C0.979711 24.3333 0.640573 24.4737 0.390524 24.7238C0.140476 24.9738 0 25.313 0 25.6666C0 26.0202 0.140476 26.3593 0.390524 26.6094C0.640573 26.8594 0.979711 26.9999 1.33333 26.9999Z" fill="#92B93C"/>
</g>
<defs>
<clipPath id="clip0_953_207">
<rect width="32" height="32" fill="white"/>
</clipPath>
</defs>
</svg>
