<svg width="32" height="32" viewBox="0 0 32 32" fill="none" xmlns="http://www.w3.org/2000/svg">
<g clip-path="url(#clip0_953_163)">
<path d="M2.00004 7.33333H10C10.1769 7.33333 10.3464 7.2631 10.4714 7.13807C10.5965 7.01305 10.6667 6.84348 10.6667 6.66667V5.33333C10.6667 4.97971 10.5262 4.64057 10.2762 4.39052C10.0261 4.14048 9.687 4 9.33337 4H7.00004C6.82323 4 6.65366 3.92976 6.52864 3.80474C6.40361 3.67971 6.33337 3.51014 6.33337 3.33333V1.33333C6.33337 0.979711 6.1929 0.640573 5.94285 0.390524C5.6928 0.140476 5.35366 0 5.00004 0C4.64642 0 4.30728 0.140476 4.05723 0.390524C3.80718 0.640573 3.66671 0.979711 3.66671 1.33333V3.33333C3.66671 3.51014 3.59647 3.67971 3.47145 3.80474C3.34642 3.92976 3.17685 4 3.00004 4H2.66671C2.31309 4 1.97395 4.14048 1.7239 4.39052C1.47385 4.64057 1.33337 4.97971 1.33337 5.33333V6.66667C1.33337 6.84348 1.40361 7.01305 1.52864 7.13807C1.65366 7.2631 1.82323 7.33333 2.00004 7.33333Z" fill="#92B93C"/>
<path d="M23.3333 10.6667H30C30.1768 10.6667 30.3463 10.5964 30.4714 10.4714C30.5964 10.3464 30.6666 10.1768 30.6666 10V9.33333C30.6666 8.97971 30.5262 8.64057 30.2761 8.39052C30.0261 8.14048 29.6869 8 29.3333 8H24C23.6463 8 23.3072 8.14048 23.0571 8.39052C22.8071 8.64057 22.6666 8.97971 22.6666 9.33333V10C22.6666 10.1768 22.7369 10.3464 22.8619 10.4714C22.9869 10.5964 23.1565 10.6667 23.3333 10.6667Z" fill="#92B93C"/>
<path d="M10.6667 9.33325H1.33333C0.979711 9.33325 0.640573 9.47373 0.390524 9.72378C0.140476 9.97383 0 10.313 0 10.6666L0 30.6666C0 31.0202 0.140476 31.3593 0.390524 31.6094C0.640573 31.8594 0.979711 31.9999 1.33333 31.9999H3.33333C3.51014 31.9999 3.67971 31.9297 3.80474 31.8047C3.92976 31.6796 4 31.5101 4 31.3333V28.6666C4 28.313 4.14048 27.9738 4.39052 27.7238C4.64057 27.4737 4.97971 27.3333 5.33333 27.3333H6.66667C7.02029 27.3333 7.35943 27.4737 7.60948 27.7238C7.85952 27.9738 8 28.313 8 28.6666V31.3333C8 31.5101 8.07024 31.6796 8.19526 31.8047C8.32029 31.9297 8.48986 31.9999 8.66667 31.9999H10.6667C11.0203 31.9999 11.3594 31.8594 11.6095 31.6094C11.8595 31.3593 12 31.0202 12 30.6666V10.6666C12 10.313 11.8595 9.97383 11.6095 9.72378C11.3594 9.47373 11.0203 9.33325 10.6667 9.33325ZM9 23.6666H3C2.73478 23.6666 2.48043 23.5612 2.29289 23.3737C2.10536 23.1862 2 22.9318 2 22.6666C2 22.4014 2.10536 22.147 2.29289 21.9595C2.48043 21.7719 2.73478 21.6666 3 21.6666H9C9.26522 21.6666 9.51957 21.7719 9.70711 21.9595C9.89464 22.147 10 22.4014 10 22.6666C10 22.9318 9.89464 23.1862 9.70711 23.3737C9.51957 23.5612 9.26522 23.6666 9 23.6666ZM9 18.9999H3C2.73478 18.9999 2.48043 18.8946 2.29289 18.707C2.10536 18.5195 2 18.2651 2 17.9999C2 17.7347 2.10536 17.4803 2.29289 17.2928C2.48043 17.1053 2.73478 16.9999 3 16.9999H9C9.26522 16.9999 9.51957 17.1053 9.70711 17.2928C9.89464 17.4803 10 17.7347 10 17.9999C10 18.2651 9.89464 18.5195 9.70711 18.707C9.51957 18.8946 9.26522 18.9999 9 18.9999ZM9 14.3333H3C2.73478 14.3333 2.48043 14.2279 2.29289 14.0404C2.10536 13.8528 2 13.5985 2 13.3333C2 13.068 2.10536 12.8137 2.29289 12.6261C2.48043 12.4386 2.73478 12.3333 3 12.3333H9C9.26522 12.3333 9.51957 12.4386 9.70711 12.6261C9.89464 12.8137 10 13.068 10 13.3333C10 13.5985 9.89464 13.8528 9.70711 14.0404C9.51957 14.2279 9.26522 14.3333 9 14.3333Z" fill="#92B93C"/>
<path d="M30.6667 12.6667H22.6667C22.3131 12.6667 21.9739 12.8072 21.7239 13.0573C21.4738 13.3073 21.3334 13.6465 21.3334 14.0001V30.6667C21.3334 31.0204 21.4738 31.3595 21.7239 31.6096C21.9739 31.8596 22.3131 32.0001 22.6667 32.0001H24C24.1769 32.0001 24.3464 31.9298 24.4714 31.8048C24.5965 31.6798 24.6667 31.5102 24.6667 31.3334V28.6667C24.6667 28.3131 24.8072 27.974 25.0572 27.7239C25.3073 27.4739 25.6464 27.3334 26 27.3334H27.3334C27.687 27.3334 28.0261 27.4739 28.2762 27.7239C28.5262 27.974 28.6667 28.3131 28.6667 28.6667V31.3334C28.6667 31.5102 28.7369 31.6798 28.862 31.8048C28.987 31.9298 29.1566 32.0001 29.3334 32.0001H30.6667C31.0203 32.0001 31.3595 31.8596 31.6095 31.6096C31.8596 31.3595 32 31.0204 32 30.6667V14.0001C32 13.6465 31.8596 13.3073 31.6095 13.0573C31.3595 12.8072 31.0203 12.6667 30.6667 12.6667ZM29 23.6667H24.3334C24.0682 23.6667 23.8138 23.5614 23.6263 23.3739C23.4387 23.1863 23.3334 22.932 23.3334 22.6667C23.3334 22.4015 23.4387 22.1472 23.6263 21.9596C23.8138 21.7721 24.0682 21.6667 24.3334 21.6667H29C29.2653 21.6667 29.5196 21.7721 29.7071 21.9596C29.8947 22.1472 30 22.4015 30 22.6667C30 22.932 29.8947 23.1863 29.7071 23.3739C29.5196 23.5614 29.2653 23.6667 29 23.6667ZM29 18.3334H24.3334C24.0682 18.3334 23.8138 18.2281 23.6263 18.0405C23.4387 17.853 23.3334 17.5986 23.3334 17.3334C23.3334 17.0682 23.4387 16.8138 23.6263 16.6263C23.8138 16.4388 24.0682 16.3334 24.3334 16.3334H29C29.2653 16.3334 29.5196 16.4388 29.7071 16.6263C29.8947 16.8138 30 17.0682 30 17.3334C30 17.5986 29.8947 17.853 29.7071 18.0405C29.5196 18.2281 29.2653 18.3334 29 18.3334Z" fill="#92B93C"/>
<path d="M18.6667 18.6667H14.6667C14.2985 18.6667 14 18.9652 14 19.3334V31.3334C14 31.7016 14.2985 32.0001 14.6667 32.0001H18.6667C19.0349 32.0001 19.3333 31.7016 19.3333 31.3334V19.3334C19.3333 18.9652 19.0349 18.6667 18.6667 18.6667Z" fill="#92B93C"/>
</g>
<defs>
<clipPath id="clip0_953_163">
<rect width="32" height="32" fill="white"/>
</clipPath>
</defs>
</svg>
