<svg width="32" height="32" viewBox="0 0 32 32" fill="none" xmlns="http://www.w3.org/2000/svg">
<g clip-path="url(#clip0_358_1161)">
<path d="M30.2225 22.584C29.7939 22.584 29.3828 22.7543 29.0798 23.0573C28.7767 23.3604 28.6065 23.7714 28.6065 24.2V26.6733C28.6058 27.2285 28.3848 27.7608 27.9921 28.1532C27.5994 28.5457 27.067 28.7663 26.5118 28.7667H5.4878C4.9326 28.7663 4.40022 28.5457 4.00751 28.1532C3.6148 27.7608 3.39384 27.2285 3.39313 26.6733V24.2C3.39313 23.7714 3.22288 23.3604 2.91982 23.0573C2.61676 22.7543 2.20572 22.584 1.77713 22.584C1.34854 22.584 0.937507 22.7543 0.634448 23.0573C0.331389 23.3604 0.161133 23.7714 0.161133 24.2V26.6733C0.161132 28.0867 0.722119 29.4422 1.72087 30.4422C2.71962 31.4422 4.07447 32.0049 5.4878 32.0067H26.5118C27.9263 32.0067 29.2828 31.4448 30.283 30.4446C31.2832 29.4444 31.8451 28.0878 31.8451 26.6733V24.2C31.8451 23.9872 31.8031 23.7765 31.7215 23.58C31.6399 23.3835 31.5202 23.2051 31.3695 23.055C31.2187 22.9048 31.0398 22.7859 30.8429 22.7051C30.6461 22.6243 30.4352 22.5831 30.2225 22.584Z" fill="#92B93C"/>
<path d="M16 0C15.3143 0 14.6567 0.272383 14.1719 0.757227C13.687 1.24207 13.4146 1.89966 13.4146 2.58533V14.6733C13.4146 14.7617 13.3795 14.8465 13.317 14.909C13.2545 14.9715 13.1697 15.0067 13.0813 15.0067H9.53597C9.28796 15.0068 9.04521 15.0782 8.83665 15.2124C8.62808 15.3466 8.4625 15.5379 8.35964 15.7636C8.25678 15.9893 8.22098 16.2398 8.2565 16.4852C8.29201 16.7307 8.39736 16.9607 8.55997 17.148L15.024 24.5827C15.1453 24.7225 15.2952 24.8346 15.4636 24.9115C15.6319 24.9883 15.8149 25.0281 16 25.0281C16.1851 25.0281 16.368 24.9883 16.5364 24.9115C16.7048 24.8346 16.8547 24.7225 16.976 24.5827L23.44 17.148C23.6026 16.9607 23.7079 16.7307 23.7434 16.4852C23.779 16.2398 23.7432 15.9893 23.6403 15.7636C23.5374 15.5379 23.3719 15.3466 23.1633 15.2124C22.9547 15.0782 22.712 15.0068 22.464 15.0067H18.9186C18.8302 15.0067 18.7454 14.9715 18.6829 14.909C18.6204 14.8465 18.5853 14.7617 18.5853 14.6733V2.58533C18.5853 1.89966 18.3129 1.24207 17.8281 0.757227C17.3432 0.272383 16.6856 0 16 0Z" fill="#92B93C"/>
</g>
<defs>
<clipPath id="clip0_358_1161">
<rect width="32" height="32" fill="white"/>
</clipPath>
</defs>
</svg>
