<svg width="70" height="22" viewBox="0 0 70 22" fill="none" xmlns="http://www.w3.org/2000/svg">
<path fill-rule="evenodd" clip-rule="evenodd" d="M29.5481 9.99207C30.1806 9.96587 30.803 10.1622 31.3142 10.5491C31.7686 10.9143 32.0237 11.4854 31.9983 12.0808C32.012 12.5793 31.874 13.0696 31.6039 13.4823C31.3239 13.881 30.9519 14.2006 30.5219 14.4118C30.0097 14.6654 29.4639 14.8385 28.9024 14.9254C28.2377 15.0355 27.5652 15.0881 26.8921 15.0827C26.8903 15.2625 26.921 15.441 26.9828 15.609C27.0473 15.7682 27.153 15.9059 27.2882 16.0068C27.4577 16.1286 27.6486 16.2147 27.8501 16.26C28.1405 16.3267 28.4375 16.3577 28.7349 16.3522C29.1348 16.3551 29.5336 16.3096 29.9233 16.2166C30.1921 16.1585 30.4554 16.0762 30.7104 15.9707L30.3125 17.6832C30.1641 17.7321 30.0001 17.7773 29.8256 17.8225C29.3433 17.9379 28.8495 17.9938 28.3545 17.9889C27.8343 17.9993 27.3161 17.918 26.8223 17.7483C26.4298 17.6136 26.0718 17.3886 25.7752 17.0901C25.5072 16.8084 25.3048 16.4669 25.1836 16.0918C25.0566 15.683 24.9947 15.2554 25.0004 14.8259C25.0004 14.2049 25.1049 13.5887 25.3092 13.0049C25.5037 12.4321 25.8083 11.9061 26.2045 11.4587C27.0633 10.4938 28.2818 9.95932 29.5481 9.99207ZM29.5237 13.2579C29.7256 13.1582 29.8989 13.0054 30.0263 12.8148C30.1118 12.6794 30.1606 12.5226 30.1676 12.3609C30.1782 12.1368 30.0824 11.9214 29.9111 11.784C29.697 11.636 29.4421 11.5643 29.1851 11.5797C28.6869 11.5859 28.2048 11.7641 27.8152 12.086C27.3801 12.426 27.0788 12.9685 26.9113 13.7136C27.4537 13.7243 27.9959 13.6819 28.5307 13.587C28.8756 13.5288 29.2102 13.4179 29.5237 13.2579Z" fill="#897E7E"/>
<path d="M35.7662 9.84583C36.0841 9.66417 36.4508 9.57354 36.8219 9.58491C37.2869 9.57712 37.7505 9.63537 38.1973 9.7577C38.534 9.85206 38.8536 9.99422 39.1452 10.1793L40 8.70885C39.8922 8.64664 39.7516 8.57407 39.5817 8.49285C39.3854 8.39743 39.1806 8.31823 38.9699 8.25613C38.6992 8.17733 38.4234 8.11499 38.1443 8.06951C37.7956 8.01329 37.4423 7.98669 37.0886 7.99002C35.8892 7.99002 34.9638 8.26361 34.3123 8.81079C33.6583 9.36694 33.2985 10.1687 33.3297 11.0001C33.3217 11.3213 33.3711 11.6414 33.4758 11.947C33.5646 12.1907 33.7002 12.4168 33.8758 12.614C34.049 12.8035 34.2531 12.9657 34.4804 13.0944C34.7142 13.2291 34.968 13.3639 35.2384 13.4987C35.4575 13.6041 35.6621 13.706 35.8539 13.8097C36.0322 13.9076 36.1988 14.0235 36.3507 14.1553C36.4873 14.2723 36.6006 14.4116 36.6849 14.5666C36.7692 14.7226 36.8113 14.8959 36.8073 15.0711C36.8153 15.287 36.761 15.5008 36.6502 15.6897C36.5468 15.8532 36.4065 15.9931 36.2393 16.0992C36.0578 16.2121 35.855 16.2907 35.642 16.3308C35.4016 16.377 35.1567 16.3995 34.9114 16.3982C34.6429 16.3988 34.3749 16.3745 34.1114 16.3256C33.8746 16.2847 33.6413 16.227 33.4137 16.1528C33.2208 16.0839 33.0329 16.0031 32.8511 15.9109C32.6813 15.8279 32.5443 15.7554 32.4347 15.6932V15.7018L32 17.4021C32.2054 17.512 32.4213 17.6034 32.6447 17.6751C32.936 17.7677 33.2339 17.8404 33.5361 17.8928C33.9223 17.9598 34.3142 17.9922 34.7068 17.9896C36.017 17.9896 37.0301 17.716 37.7461 17.1688C38.4621 16.6216 38.8219 15.8193 38.8256 14.7618C38.8332 14.4249 38.7762 14.0894 38.6575 13.7717C38.5496 13.5044 38.3912 13.2579 38.19 13.0442C37.9861 12.8301 37.749 12.6466 37.4868 12.4999C37.1957 12.3349 36.8958 12.1844 36.5881 12.049C36.2712 11.92 35.9719 11.7552 35.6968 11.5582C35.4461 11.3627 35.3102 11.0649 35.3315 10.7582C35.3315 10.3245 35.4758 10.0221 35.7662 9.84583Z" fill="#897E7E"/>
<path fill-rule="evenodd" clip-rule="evenodd" d="M43.1915 10.4897C44.1578 10.4897 44.8699 10.7339 45.3207 11.2275C45.7845 11.7539 46.0267 12.4355 45.9977 13.1326C45.9958 13.7638 45.8964 14.3911 45.703 14.9927C45.528 15.5724 45.2396 16.1125 44.8541 16.5826C44.4575 17.0516 43.9595 17.4268 43.3967 17.6806C42.749 17.9661 42.0449 18.1052 41.3359 18.0876C41.1272 18.0876 40.964 18.0807 40.8483 18.0703C40.7479 18.0621 40.6482 18.0465 40.5501 18.0235L40.1608 19.5822L38 20.4897L40.3502 10.9799C40.5776 10.885 40.8121 10.808 41.0517 10.7495C41.3061 10.6872 41.5586 10.6352 41.8164 10.5954C42.0436 10.5603 42.2599 10.54 42.4701 10.5202C42.4985 10.5176 42.5267 10.5149 42.5548 10.5123C42.7916 10.4897 43.0038 10.4897 43.1915 10.4897ZM43.3476 15.4983C43.5915 15.1963 43.7765 14.8521 43.893 14.4834C44.0211 14.0905 44.0868 13.6804 44.0877 13.2676C44.0881 13.1163 44.0722 12.9653 44.0404 12.8173C44.0107 12.6766 43.9509 12.5437 43.865 12.4276C43.7717 12.3068 43.6468 12.2134 43.5037 12.1575C43.3083 12.0822 43.0995 12.0468 42.8898 12.0535C42.714 12.0519 42.5382 12.0617 42.3637 12.083C42.2342 12.1016 42.106 12.1276 41.9796 12.1609L40.9272 16.411C40.9831 16.4327 41.0427 16.4433 41.1026 16.4422H41.3078C41.7101 16.4502 42.1085 16.3642 42.4707 16.1911C42.8107 16.0262 43.1101 15.7898 43.3476 15.4983Z" fill="#897E7E"/>
<path fill-rule="evenodd" clip-rule="evenodd" d="M46.646 17.2061C47.0779 17.7272 47.7381 17.9878 48.6266 17.9878C49.2892 18.0089 49.9465 17.8599 50.5381 17.5545C51.0716 17.2707 51.5379 16.8714 51.9044 16.3847C52.2758 15.8916 52.5548 15.3328 52.7274 14.7364C52.9077 14.1281 52.9995 13.4962 53 12.8607C53 11.9111 52.764 11.1956 52.292 10.7142C51.7942 10.223 51.1203 9.96195 50.4283 9.9921C49.7678 9.97661 49.1138 10.1273 48.5239 10.4308C47.9866 10.7158 47.5153 11.1146 47.1416 11.6006C46.7659 12.0944 46.4794 12.6526 46.2956 13.2489C46.1036 13.8575 46.0039 14.4925 46 15.1318C45.9982 15.9965 46.2124 16.6862 46.646 17.2061ZM49.8691 15.9694C49.6292 16.1603 49.3325 16.2616 49.0283 16.2565H49.0337C48.6 16.2565 48.3115 16.1084 48.1699 15.8178C48.0116 15.4396 47.939 15.0298 47.9576 14.6191C47.9619 14.2935 48.0083 13.97 48.0956 13.6568C48.1786 13.3261 48.3054 13.0084 48.4726 12.7127C48.634 12.4326 48.8474 12.1873 49.1009 11.9905C49.3392 11.8016 49.6328 11.6999 49.9345 11.7017C50.3841 11.7035 50.6761 11.8497 50.8195 12.1404C50.9777 12.5186 51.0497 12.9284 51.0301 13.3391C51.0205 14.0117 50.8374 14.6698 50.4991 15.2473C50.3325 15.524 50.1191 15.7684 49.8691 15.9694Z" fill="#897E7E"/>
<path d="M59.0238 9.88574L58.9745 10.094L59.0256 9.88574H59.0238Z" fill="#897E7E"/>
<path d="M59 10.0553L58.9812 10.1431L58.605 11.8472L58.5777 11.9741C58.3068 11.9423 58.0345 11.9267 57.762 11.9274C57.4876 11.9277 57.2135 11.947 56.9413 11.9853C56.6772 12.017 56.4169 12.0796 56.165 12.1719L54.8809 17.9897H53L54.6261 10.6489C55.6246 10.2264 56.6844 10.0032 57.7552 9.99002C58.1709 9.98702 58.5865 10.0088 59 10.0553Z" fill="#897E7E"/>
<path d="M60.0651 14.9426C60.018 15.1416 59.9907 15.3445 59.9834 15.5486C59.9834 15.8602 60.0899 16.068 60.3063 16.1701C60.5375 16.2766 60.7905 16.3304 61.0461 16.3277C61.3446 16.3269 61.6421 16.2938 61.9332 16.229C62.2359 16.1627 62.5326 16.0724 62.8202 15.9589V15.9797L62.3909 17.711C62.168 17.7836 61.9404 17.8414 61.7096 17.8841C61.3188 17.955 60.9221 17.9904 60.5245 17.9897C59.6742 17.9897 59.0414 17.8097 58.6263 17.4496C58.2111 17.0895 58.0024 16.5701 58 15.8914C58.0008 15.7224 58.0121 15.5536 58.0337 15.3859C58.0553 15.1972 58.0909 15.0103 58.1402 14.8267L58.5074 13.3412L58.7646 12.3024L58.8161 12.0964L59.2082 10.5105L59.563 9.08739L61.809 7.98975L61.1614 10.5209H64L63.6044 12.1137H60.7765L60.0651 14.9426Z" fill="#897E7E"/>
<path d="M66.3182 11.7646C66.4446 11.7114 66.5786 11.6768 66.7157 11.6618C66.8408 11.6468 66.9666 11.6389 67.0926 11.6383C67.5147 11.6326 67.9361 11.6713 68.3494 11.7537C68.6547 11.8212 68.9516 11.9197 69.235 12.0477L70 10.4823C69.6355 10.3253 69.2529 10.2103 68.86 10.1396C68.3414 10.0363 67.8127 9.98608 67.2829 9.98995C66.1222 9.98995 65.2517 10.225 64.6713 10.6951C64.0912 11.1627 63.7681 11.8597 63.7952 12.5851C63.7907 12.8302 63.8302 13.0742 63.912 13.3065C63.9881 13.5087 64.1082 13.6931 64.2643 13.8476C64.4372 14.0138 64.6362 14.1532 64.8541 14.2606C65.1219 14.3924 65.3989 14.5063 65.6832 14.6014C65.9413 14.7006 66.1542 14.7818 66.3219 14.8539C66.4627 14.9089 66.5962 14.9797 66.7195 15.0649C66.8032 15.122 66.8722 15.1966 66.9211 15.2831C66.9616 15.3641 66.9816 15.4531 66.9795 15.5428C66.9733 15.7676 66.8446 15.9728 66.6404 16.0839C66.4143 16.2354 66.0035 16.3099 65.4081 16.3075C64.9268 16.3178 64.4474 16.2451 63.993 16.0929C63.7838 16.0189 63.5992 15.9486 63.439 15.8801L63 17.5988C63.1017 17.6366 63.2167 17.6727 63.3392 17.7088C63.6376 17.7937 63.9416 17.8594 64.2493 17.9054C64.6521 17.9638 65.0591 17.9915 65.4665 17.9883C66.0275 18.0012 66.587 17.9263 67.1227 17.7665C67.5362 17.6433 67.9203 17.4435 68.2533 17.1786C68.7821 16.7436 69.0885 16.111 69.0937 15.4436C69.0991 15.1808 69.0629 14.9188 68.9863 14.6663C68.9143 14.4575 68.7938 14.267 68.6339 14.1091C68.4557 13.935 68.252 13.7868 68.0291 13.669C67.7469 13.5234 67.4562 13.3933 67.1585 13.2795C66.8778 13.1821 66.6536 13.0991 66.484 13.0198C66.3461 12.9611 66.2159 12.8872 66.0958 12.7998C66.0178 12.7474 65.957 12.6748 65.9206 12.5906C65.8902 12.5096 65.8755 12.4241 65.8773 12.3381C65.873 12.2113 65.9188 12.0877 66.0054 11.9918C66.0912 11.8953 66.1979 11.8177 66.3182 11.7646Z" fill="#897E7E"/>
<path d="M59.0203 9.90234L58.9781 10.0773L59.022 9.90234H59.0203Z" fill="#897E7E"/>
<path d="M59.0212 9.90234L58.9772 10.0773L59.0229 9.90234H59.0212Z" fill="#897E7E"/>
<path d="M21 11.4897C21 17.2887 16.299 21.9897 10.5 21.9897C4.70101 21.9897 0 17.2887 0 11.4897C0 5.69076 4.70101 0.989746 10.5 0.989746C13.2849 0.98928 15.9559 2.09538 17.9251 4.06461C19.8944 6.03384 21.0005 8.70483 21 11.4897Z" fill="#897E7E"/>
<path d="M13 5.99142C12.9991 7.09599 12.1029 7.99067 10.9983 7.98975C9.89376 7.98882 8.99908 7.09264 9 5.98807C9.00093 4.8835 9.8971 3.98882 11.0017 3.98975C11.5322 3.98975 12.041 4.20074 12.4159 4.57623C12.7907 4.95171 13.0009 5.46085 13 5.99142Z" fill="#FFFFFE"/>
<path fill-rule="evenodd" clip-rule="evenodd" d="M16.0107 9.4608C16.4979 9.62478 16.9378 9.98416 16.9905 10.5075C17.0505 10.935 16.8142 11.3362 16.5924 11.6851C16.0615 12.4912 15.4383 13.2379 14.7346 13.9112C13.9166 14.7241 13.055 15.4813 12.1752 16.2262C12.7405 16.6658 13.3131 17.0985 13.8948 17.5189L13.8366 17.5748L12.686 18.6738L12.3588 18.9896C12.3497 18.9969 12.0142 18.7395 11.8789 18.6357C11.852 18.6151 11.8331 18.6005 11.8261 18.5953L11.1917 18.1086C9.33938 16.692 7.51612 15.2213 5.92008 13.5518C5.28748 12.8906 4.65852 12.1841 4.2277 11.3816C4.11968 11.1987 4.04586 10.9992 4.00956 10.7919C3.97687 10.5433 4.0285 10.2913 4.15681 10.0731C4.4113 9.65095 4.87121 9.47475 5.34202 9.36136C6.33955 9.12081 7.38377 9.07597 8.40988 9.03191C8.49261 9.02836 8.57523 9.02481 8.6577 9.02117C9.5248 8.98279 10.3955 8.98627 11.2644 8.99674C12.3576 8.99968 13.4498 9.05792 14.5365 9.1712C14.7874 9.20086 15.0418 9.23226 15.2909 9.28285C15.42 9.30727 15.549 9.33344 15.6781 9.36659C15.7919 9.38758 15.9033 9.41913 16.0107 9.4608ZM10.5264 14.8599L10.6663 14.743L10.6754 14.7378C11.3862 14.1446 12.0861 13.5358 12.7586 12.9007C13.3238 12.3805 13.8528 11.8251 14.342 11.2382C14.0366 11.1998 13.7294 11.1754 13.4221 11.1544C12.2787 11.069 11.1299 11.0567 9.98467 11.069C8.87868 11.066 7.77344 11.1242 6.67444 11.2434C7.20805 11.8811 7.78623 12.4832 8.40499 13.0455C8.76007 13.3805 9.12363 13.7091 9.49568 14.0312C9.68837 14.1999 9.88287 14.3662 10.0792 14.5302L10.3882 14.7918L10.47 14.8599C10.4882 14.8913 10.5082 14.8913 10.5264 14.8599Z" fill="#FFFFFE"/>
</svg>
