<svg width="240" height="76" viewBox="0 0 240 76" fill="none" xmlns="http://www.w3.org/2000/svg">
<g clip-path="url(#clip0_953_1119)">
<path d="M69.1049 70.2472H74.3546L77.2401 51.155H81.5537L82.1616 47.1387H67.8504L67.2425 51.155H71.9903L69.1049 70.2472Z" fill="#2297F4"/>
<path d="M133.597 61.4869C133.105 64.6786 131.262 66.5897 128.618 66.5897C127.209 66.5897 126.398 66.1823 126.398 66.1823L127.826 56.6653C127.826 56.6653 128.685 56.3161 129.978 56.3161C132.41 56.3161 134.176 57.7519 133.597 61.4869ZM130.625 52.2512C127.894 52.2512 125.008 52.7266 123.262 53.4542L119.875 76.0097H124.941L125.819 70.1598C125.819 70.1598 126.967 70.5479 128.762 70.5479C134.302 70.5479 137.805 67.2979 138.702 61.351C139.522 55.8698 136.801 52.2609 130.634 52.2609" fill="#2297F4"/>
<path d="M101.23 61.4869C100.738 64.6786 98.8951 66.5897 96.2509 66.5897C94.842 66.5897 94.0314 66.1823 94.0314 66.1823L95.4596 56.6653C95.4596 56.6653 96.3185 56.3161 97.6116 56.3161C100.043 56.3161 101.809 57.7519 101.23 61.4869ZM98.2582 52.2512C95.5272 52.2512 92.6417 52.7266 90.8951 53.4542L87.4982 76.0097H92.5645L93.4427 70.1598C93.4427 70.1598 94.5911 70.5479 96.386 70.5479C101.925 70.5479 105.438 67.2979 106.326 61.351C107.146 55.8698 104.425 52.2609 98.2582 52.2609" fill="#2297F4"/>
<path d="M171.445 49.2051L169.033 65.251C168.589 68.2099 169.882 70.5576 173.703 70.5576C174.938 70.5576 176.589 70.3442 177.148 70.1599L177.785 65.9204C177.351 65.998 176.55 66.0271 176.261 66.0271C174.649 66.0271 174.089 65.2801 174.282 64.0481L175.421 56.4713H179.214L179.783 52.6684H175.99L176.791 47.3618L171.445 49.2148V49.2051Z" fill="#2297F4"/>
<path d="M106.384 69.9173C106.384 69.9173 109.057 70.6546 112.367 70.6546C116.642 70.6546 119.498 69.0248 119.981 65.8912C120.338 63.592 119.518 61.8264 115.744 59.7018C113.843 58.6347 112.888 58.2272 113.013 57.3541C113.158 56.3937 114.673 56.2773 115.522 56.2773C117.694 56.2773 120.183 56.8205 120.183 56.8205L120.849 52.8624C120.849 52.8624 118.61 52.2512 115.339 52.2512C111.286 52.2512 108.429 53.881 107.986 56.8787C107.648 59.1682 108.478 61.0988 112.154 63.1361C113.988 64.1547 115.03 64.698 114.876 65.6099C114.77 66.2502 113.978 66.6383 112.28 66.6383C109.684 66.6383 107.214 66.0174 107.214 66.0174L106.393 69.927L106.384 69.9173Z" fill="#2297F4"/>
<path d="M80.1833 70.2472H85.2497L87.8842 52.6587H82.8275L80.1833 70.2472Z" fill="#2297F4"/>
<path d="M83.0591 51.155H88.1158L88.7141 47.1387H83.6574L83.0591 51.155Z" fill="#2297F4"/>
<path d="M169.911 52.3191C167.73 52.125 163.966 52.2512 160.55 53.8034L158.08 70.2374H163.146L165.182 56.6847C165.182 56.6847 166.659 56.0832 169.293 56.3839L169.911 52.3094V52.3191Z" fill="#2297F4"/>
<path d="M152.415 61.5257C151.788 65.6972 149.703 66.5994 148.092 66.5994C146.036 66.5994 144.695 64.9502 145.235 61.3801C145.862 57.2086 147.947 56.3064 149.559 56.3064C151.643 56.3064 152.955 57.9556 152.415 61.5257ZM150.109 52.2512C144.318 52.2512 141.047 55.375 140.13 61.4966C139.493 65.7748 141.356 70.6546 147.503 70.6546C153.293 70.6546 156.565 67.5308 157.481 61.4092C158.118 57.131 156.092 52.2512 150.109 52.2512Z" fill="#2297F4"/>
<path d="M0 75.1949L30.1375 57.0729L49.9011 70.4898L35.2232 23.1377L0 75.1949Z" fill="#B4D200"/>
<path d="M45.0567 9.27445C45.0567 14.3967 40.9264 18.5489 35.8311 18.5489C30.7358 18.5489 26.6056 14.3967 26.6056 9.27445C26.6056 4.15216 30.7358 0 35.8311 0C40.9264 0 45.0567 4.15216 45.0567 9.27445Z" fill="#B4D200"/>
<path d="M15.4596 9.72076L30.1375 57.0728L65.3607 5.01562L35.2232 23.1377L15.4596 9.72076Z" fill="#B4D200"/>
<path d="M96.2413 42.4529H90.4125L80.5501 20.4698C79.7298 18.675 79.0929 16.7348 78.9288 16.1721H78.8227C78.7551 17.0937 78.5621 18.8787 78.2919 20.9742L75.117 42.4141H68.9891L74.4318 5.41333H80.5211L90.1134 26.8532C90.6634 28.0853 91.4451 30.1808 91.7346 31.1509H91.8408C91.8794 30.7434 92.1013 28.5412 92.4777 26.1935L95.6043 5.41333H101.752L96.2509 42.4335L96.2413 42.4529Z" fill="#B4D200"/>
<path d="M125.423 24.4862L122.934 41.1045C120.483 42.2202 116.7 43.0836 112.444 43.0836C105.187 43.0739 101.53 40.0083 101.375 35.5069C101.037 25.9996 111.672 25.1362 118.823 24.7384L119.025 23.3026C119.064 22.9922 119.103 22.6914 119.093 22.4295C119.016 20.2273 117.366 19.3542 114.519 19.3542C111.923 19.3542 108.7 20.1691 106.596 21.0422L105.563 16.2789C108.014 15.202 111.739 14.2804 115.706 14.2901C121.756 14.2901 125.404 16.958 125.568 21.828C125.597 22.6429 125.568 23.5161 125.404 24.4862H125.423ZM107.889 34.6434C107.966 36.7389 109.587 38.1165 112.936 38.1262C114.413 38.1262 116.179 37.874 116.931 37.5732L118.166 29.1913C114.162 29.395 107.715 29.5891 107.889 34.6531V34.6434Z" fill="#B4D200"/>
<path d="M150.504 41.1433C147.85 42.3657 144.463 43.1321 140.545 43.1224C133.018 43.1127 128.811 38.7568 128.579 31.8592C128.28 22.9049 133.144 14.6588 143.373 14.6588C145.052 14.6588 146.692 14.9692 147.522 15.2797L149.443 2.29932H156.429L150.504 41.1433ZM143.546 19.9363C137.486 19.9363 135.286 27.0958 135.431 31.6555C135.556 35.2837 137.457 37.6412 140.922 37.6509C142.138 37.6509 143.556 37.3501 144.212 37.0397L146.721 20.4505C146.152 20.1982 144.772 19.9363 143.546 19.9363Z" fill="#B4D200"/>
<path d="M179.329 24.5346L176.791 41.182C174.331 42.3074 170.528 43.1708 166.253 43.1611C158.967 43.1514 155.3 40.0761 155.156 35.5747C154.847 26.048 165.52 25.1846 172.7 24.7868L172.912 23.351C172.951 23.0406 172.999 22.7399 172.989 22.4779C172.922 20.2757 171.262 19.4026 168.405 19.3929C165.8 19.3929 162.567 20.2078 160.454 21.0809L159.431 16.3079C161.891 15.231 165.636 14.3094 169.621 14.3094C175.701 14.3094 179.358 16.987 179.503 21.857C179.532 22.6816 179.503 23.5548 179.329 24.5249V24.5346ZM161.698 34.7113C161.766 36.8067 163.387 38.194 166.755 38.2037C168.232 38.2037 170.007 37.9515 170.76 37.6411L172.024 29.2397C168 29.4435 161.534 29.6375 161.698 34.7113ZM173.259 11.7483H168.309L172.941 4.96707C174.128 3.89022 175.749 3.42456 177.081 3.42456C178.413 3.42456 179.657 3.98724 179.783 4.96707L173.25 11.7483H173.259Z" fill="#B4D200"/>
<path d="M201.255 21.1102C200.261 20.4409 198.871 20.0334 197.288 20.0334C191.817 20.0334 189.51 26.4945 189.655 31.1608C189.78 35.2062 191.932 37.2629 194.586 37.2629C196.014 37.2629 197.636 36.7002 198.832 35.9338L200.27 41.3181C198.466 42.4919 196.034 43.2098 192.926 43.2001C187.262 43.2001 182.697 39.0868 182.466 31.8593C182.186 22.8371 187.233 14.3193 197.047 14.3193C200.164 14.3193 202.538 15.0954 204.111 16.2208L201.245 21.1005L201.255 21.1102Z" fill="#B4D200"/>
<path d="M210.538 42.618H203.542L207.826 14.9499H214.842L210.548 42.618H210.538ZM212.246 10.5358C210.297 10.5358 208.666 8.99326 208.618 7.18882C208.55 4.87021 210.384 2.96875 212.999 2.96875C214.948 2.96875 216.531 4.46275 216.579 6.25749C216.647 8.5761 214.861 10.5261 212.246 10.5261V10.5358Z" fill="#B4D200"/>
<path d="M239.807 24.5833L237.211 41.2695C234.731 42.3949 230.919 43.2583 226.625 43.2583C219.31 43.2486 215.633 40.1636 215.508 35.6524C215.228 26.1064 225.949 25.243 233.158 24.8355L233.37 23.3997C233.409 23.0893 233.457 22.7788 233.447 22.5266C233.38 20.3147 231.72 19.4416 228.854 19.4416C226.239 19.4416 222.987 20.2565 220.864 21.1296L219.85 16.3469C222.33 15.27 226.094 14.3484 230.089 14.3484C236.188 14.3484 239.855 17.0259 239.99 21.9154C240.01 22.74 239.99 23.6131 239.807 24.593V24.5833ZM222.07 34.789C222.128 36.8942 223.759 38.2815 227.136 38.2815C228.622 38.2815 230.408 38.0293 231.16 37.7188L232.454 29.2981C228.41 29.5018 221.916 29.6958 222.06 34.7793L222.07 34.789Z" fill="#B4D200"/>
</g>
<defs>
<clipPath id="clip0_953_1119">
<rect width="240" height="76" fill="white"/>
</clipPath>
</defs>
</svg>
