<svg width="20" height="21" viewBox="0 0 20 21" fill="none" xmlns="http://www.w3.org/2000/svg">
<g clip-path="url(#clip0_363_1470)">
<path d="M19.4869 18.6448L14.046 13.204C15.2336 11.6428 15.7839 9.68888 15.5855 7.73742C15.3872 5.78596 14.455 3.9827 12.9775 2.69246C11.5001 1.40222 9.58773 0.721334 7.62733 0.787556C5.66693 0.853778 3.80488 1.66216 2.41788 3.04916C1.03088 4.43616 0.222492 6.29822 0.15627 8.25862C0.0900479 10.219 0.770933 12.1314 2.06117 13.6088C3.35141 15.0863 5.15467 16.0185 7.10613 16.2168C9.05759 16.4152 11.0115 15.8649 12.5727 14.6773L18.0135 20.1181C18.2106 20.3103 18.4749 20.4179 18.7502 20.4179C19.0254 20.4179 19.2898 20.3103 19.4869 20.1181C19.6821 19.9227 19.7917 19.6577 19.7917 19.3815C19.7917 19.1052 19.6821 18.8403 19.4869 18.6448ZM2.29185 8.54564C2.29185 7.43312 2.62175 6.34558 3.23983 5.42055C3.85792 4.49553 4.73642 3.77456 5.76426 3.34881C6.79209 2.92307 7.92309 2.81168 9.01423 3.02872C10.1054 3.24576 11.1077 3.78149 11.8943 4.56816C12.681 5.35483 13.2167 6.35711 13.4338 7.44825C13.6508 8.5394 13.5394 9.6704 13.1137 10.6982C12.6879 11.7261 11.967 12.6046 11.0419 13.2227C10.1169 13.8407 9.02937 14.1706 7.91685 14.1706C6.42555 14.1689 4.99583 13.5757 3.94132 12.5212C2.88681 11.4667 2.29361 10.0369 2.29185 8.54564Z" fill="#92B93C"/>
</g>
<defs>
<clipPath id="clip0_363_1470">
<rect width="20" height="20" fill="white" transform="translate(0 0.628967)"/>
</clipPath>
</defs>
</svg>
