<svg width="32" height="32" viewBox="0 0 32 32" fill="none" xmlns="http://www.w3.org/2000/svg"><g clip-path="url(#clip0_953_186)" fill="#92B93C"><path d="M31.333 19.99h-2.666a.667.667 0 01-.667-.667v-.667a.667.667 0 01.667-.667h2a.666.666 0 00.578-.997l-1.674-2.933A.496.496 0 0130 13.32a.667.667 0 00.565-1.02l-3.333-5.333a.692.692 0 00-1.13 0L22.767 12.3a.667.667 0 00.565 1.02.495.495 0 01.43.739l-1.675 2.933a.667.667 0 00.579.997h2a.667.667 0 01.666.667v1.107a.667.667 0 01-.5.645 19.483 19.483 0 00-7.13 3.753.334.334 0 00.1.575 16.893 16.893 0 017.58 4.879c.399.48.617 1.084.617 1.708a.667.667 0 00.667.666h4.666a.667.667 0 00.667-.666V20.656a.667.667 0 00-.667-.667z"/><path d="M11.273 25.415a.667.667 0 01-.606-.667v-2.092a.667.667 0 01.666-.667h4.054a1.332 1.332 0 001.092-2.098l-2.718-3.882a.436.436 0 01.358-.686 1.334 1.334 0 001.125-2.05l-3.017-4.74a.667.667 0 01.133-.864 1.333 1.333 0 00.276-1.698L9.239.312a.693.693 0 00-1.144 0L4.7 5.969a1.333 1.333 0 00.276 1.699.667.667 0 01.134.865l-3.023 4.742a1.333 1.333 0 001.127 2.048.436.436 0 01.357.686L.855 19.891a1.333 1.333 0 001.092 2.098H6a.667.667 0 01.667.667v2.312a.666.666 0 01-.54.653 15.569 15.569 0 00-5.83 2.48.667.667 0 00-.297.555v2.667a.667.667 0 00.667.666h22.666a.667.667 0 00.512-1.094c-3.096-3.715-8.697-5.13-12.572-5.48z"/></g><defs><clipPath id="clip0_953_186"><path fill="#fff" d="M0 0h32v32H0z"/></clipPath></defs></svg>