<svg width="32" height="32" viewBox="0 0 32 32" fill="none" xmlns="http://www.w3.org/2000/svg"><g clip-path="url(#clip0_953_139)" fill="#92B93C"><path d="M12.452 21.467a.668.668 0 00.864-.622c.094-1.909.56-3.78 1.37-5.512a.668.668 0 00-.05-.666 12.001 12.001 0 00-9.97-5.334A.667.667 0 004 10a12.021 12.021 0 008.452 11.467zM12 9.41c1.435.885 2.7 2.022 3.733 3.355a.332.332 0 00.534 0A14.109 14.109 0 0120 9.405a.666.666 0 00.316-.602 13.086 13.086 0 00-3.85-8.615.685.685 0 00-.942 0 13.134 13.134 0 00-3.836 8.619.667.667 0 00.312.602zM15.333 21.333v3a1 1 0 102 0v-1.825a.667.667 0 01.562-.659A12.018 12.018 0 0028 10a.667.667 0 00-.667-.666 12.013 12.013 0 00-12 12zM30.667 29.333A4.992 4.992 0 0126.8 27.14a1.408 1.408 0 00-2.061.03 4.96 4.96 0 01-3.85 2.164 4.99 4.99 0 01-3.866-2.194 1.406 1.406 0 00-2.063.032 4.96 4.96 0 01-3.85 2.162 4.992 4.992 0 01-3.866-2.194 1.406 1.406 0 00-2.063.032 4.957 4.957 0 01-3.848 2.162 1.333 1.333 0 000 2.667c1.638 0 3.221-.588 4.462-1.657a.666.666 0 01.852 0 6.837 6.837 0 008.925 0 .666.666 0 01.852 0 6.839 6.839 0 008.933 0 .666.666 0 01.852 0A6.842 6.842 0 0030.667 32a1.334 1.334 0 000-2.667z"/></g><defs><clipPath id="clip0_953_139"><path fill="#fff" d="M0 0h32v32H0z"/></clipPath></defs></svg>