<svg width="32" height="32" viewBox="0 0 32 32" fill="none" xmlns="http://www.w3.org/2000/svg"><g clip-path="url(#clip0_953_196)" fill="#92B93C"><path d="M21.156 13.945a.667.667 0 00.163-1.124 8.219 8.219 0 00-1.931-1.2.332.332 0 01-.048-.584 6.023 6.023 0 10-6.559 0 .333.333 0 01-.046.584 8.207 8.207 0 00-1.974 1.232.666.666 0 00.16 1.12 8.057 8.057 0 013.126 2.478.667.667 0 00.533.266h2.845a.667.667 0 00.534-.266 8.055 8.055 0 013.197-2.506zm-8.257-9.012a.333.333 0 01.496-.166 7.733 7.733 0 004.229 1.257 7.6 7.6 0 001.381-.133.334.334 0 01.394.344 3.35 3.35 0 01-6.694-.215c.002-.37.067-.738.194-1.087zM13.69 21.304a6.022 6.022 0 10-9.302 5.02.335.335 0 01-.047.584c-.51.225-.996.503-1.449.828a8.188 8.188 0 00-2.47 2.797.999.999 0 00.88 1.467h12.729a.999.999 0 00.881-1.467 8.19 8.19 0 00-2.47-2.8 8.077 8.077 0 00-1.45-.828.334.334 0 01-.047-.584 5.988 5.988 0 002.744-5.017zm-9.186-1.09A.334.334 0 015 20.046a7.733 7.733 0 004.23 1.257 7.606 7.606 0 001.38-.133.34.34 0 01.368.197c.02.046.028.096.026.147a3.35 3.35 0 01-6.693-.215c0-.37.066-.738.193-1.087zM29.108 27.733a8.077 8.077 0 00-1.45-.828.334.334 0 01-.046-.584 6.024 6.024 0 10-6.557 0 .334.334 0 01-.047.584c-.51.226-.996.503-1.45.828a8.187 8.187 0 00-2.47 2.8.998.998 0 00.881 1.467h12.728a.999.999 0 00.882-1.467 8.188 8.188 0 00-2.471-2.8zm-7.937-7.52a.334.334 0 01.496-.166 7.733 7.733 0 004.229 1.257 7.595 7.595 0 001.381-.133.34.34 0 01.367.197c.02.047.03.097.027.147a3.35 3.35 0 01-6.694-.215c.002-.37.067-.738.194-1.087z"/></g><defs><clipPath id="clip0_953_196"><path fill="#fff" d="M0 0h32v32H0z"/></clipPath></defs></svg>