<svg width="32" height="32" viewBox="0 0 32 32" fill="none" xmlns="http://www.w3.org/2000/svg"><g clip-path="url(#clip0_953_207)" fill="#92B93C"><path d="M1.667 22.667h4.666a.331.331 0 00.334-.334v-2.666a1.333 1.333 0 00-1.334-1.334H2.667a1.333 1.333 0 00-1.334 1.334v2.666a.332.332 0 00.334.334zM10.667 11.667A1.333 1.333 0 009.333 13v9.333a.332.332 0 00.334.334h4.666a.332.332 0 00.334-.334V13a1.333 1.333 0 00-1.334-1.333h-2.666zM18.667 14.333a1.333 1.333 0 00-1.334 1.334v6.666a.331.331 0 00.334.334h4.666a.332.332 0 00.334-.334v-6.666a1.333 1.333 0 00-1.334-1.334h-2.666zM25.667 22.667h4.666a.335.335 0 00.309-.206.331.331 0 00.025-.128v-16A1.333 1.333 0 0029.333 5h-2.666a1.333 1.333 0 00-1.334 1.333v16a.331.331 0 00.334.334zM1.333 27h29.334a1.334 1.334 0 000-2.667H1.333a1.333 1.333 0 100 2.667z"/></g><defs><clipPath id="clip0_953_207"><path fill="#fff" d="M0 0h32v32H0z"/></clipPath></defs></svg>