<svg width="32" height="32" viewBox="0 0 32 32" fill="none" xmlns="http://www.w3.org/2000/svg"><g clip-path="url(#clip0_953_163)" fill="#92B93C"><path d="M2 7.333h8a.666.666 0 00.667-.666V5.333A1.334 1.334 0 009.333 4H7a.667.667 0 01-.667-.667v-2a1.333 1.333 0 10-2.666 0v2A.667.667 0 013 4h-.333a1.333 1.333 0 00-1.334 1.333v1.334A.667.667 0 002 7.333zM23.333 10.667H30a.667.667 0 00.667-.667v-.667A1.333 1.333 0 0029.333 8H24a1.334 1.334 0 00-1.333 1.333V10a.667.667 0 00.666.667zM10.667 9.333H1.333A1.333 1.333 0 000 10.667v20A1.333 1.333 0 001.333 32h2A.667.667 0 004 31.333v-2.666a1.333 1.333 0 011.333-1.334h1.334A1.333 1.333 0 018 28.667v2.666a.667.667 0 00.667.667h2A1.334 1.334 0 0012 30.667v-20a1.334 1.334 0 00-1.333-1.334zM9 23.667H3a1 1 0 010-2h6a1 1 0 110 2zM9 19H3a1 1 0 110-2h6a1 1 0 010 2zm0-4.667H3a1 1 0 010-2h6a1 1 0 110 2zM30.667 12.667h-8A1.333 1.333 0 0021.333 14v16.667A1.333 1.333 0 0022.667 32H24a.667.667 0 00.667-.667v-2.666A1.334 1.334 0 0126 27.333h1.333a1.334 1.334 0 011.334 1.334v2.666a.666.666 0 00.666.667h1.334A1.333 1.333 0 0032 30.667V14a1.333 1.333 0 00-1.333-1.333zm-1.667 11h-4.667a1 1 0 110-2H29a1 1 0 110 2zm0-5.334h-4.667a1 1 0 110-2H29a1 1 0 110 2zM18.667 18.667h-4a.667.667 0 00-.667.666v12c0 .369.299.667.667.667h4a.667.667 0 00.666-.667v-12a.667.667 0 00-.666-.666z"/></g><defs><clipPath id="clip0_953_163"><path fill="#fff" d="M0 0h32v32H0z"/></clipPath></defs></svg>