<svg width="32" height="32" viewBox="0 0 32 32" fill="none" xmlns="http://www.w3.org/2000/svg"><g clip-path="url(#clip0_358_1161)" fill="#92B93C"><path d="M30.223 22.584a1.616 1.616 0 00-1.616 1.616v2.473a2.096 2.096 0 01-2.095 2.094H5.488a2.096 2.096 0 01-2.095-2.094V24.2a1.616 1.616 0 00-3.232 0v2.473a5.333 5.333 0 005.327 5.334h21.024a5.333 5.333 0 005.333-5.334V24.2a1.617 1.617 0 00-1.622-1.616z"/><path d="M16 0a2.585 2.585 0 00-2.585 2.585v12.088a.333.333 0 01-.334.334H9.536a1.293 1.293 0 00-.976 2.141l6.464 7.435a1.293 1.293 0 001.952 0l6.464-7.435a1.293 1.293 0 00-.976-2.141h-3.545a.333.333 0 01-.334-.334V2.585A2.585 2.585 0 0016 0z"/></g><defs><clipPath id="clip0_358_1161"><path fill="#fff" d="M0 0h32v32H0z"/></clipPath></defs></svg>