<svg width="124" height="40" viewBox="0 0 124 40" fill="none" xmlns="http://www.w3.org/2000/svg"><g clip-path="url(#clip0_933_289)" fill="#1A1919"><path d="M35.704 36.972h2.713l1.49-10.048h2.23l.313-2.114h-7.394l-.314 2.114h2.453l-1.49 10.048zM69.025 32.361c-.254 1.68-1.206 2.686-2.573 2.686-.727 0-1.146-.214-1.146-.214l.738-5.01s.443-.183 1.111-.183c1.257 0 2.17.756 1.87 2.721zm-1.535-4.86c-1.411 0-2.902.25-3.805.633l-1.75 11.871h2.618l.454-3.079s.593.204 1.52.204c2.862 0 4.672-1.71 5.136-4.84.424-2.885-.983-4.784-4.168-4.784M52.302 32.361c-.254 1.68-1.206 2.686-2.572 2.686-.728 0-1.147-.214-1.147-.214l.738-5.01s.444-.183 1.112-.183c1.256 0 2.169.756 1.87 2.721zm-1.535-4.86c-1.411 0-2.902.25-3.805.633l-1.755 11.871h2.618l.454-3.079s.593.204 1.52.204c2.862 0 4.677-1.71 5.136-4.84.424-2.885-.982-4.784-4.168-4.784M88.58 25.897l-1.246 8.446c-.23 1.557.438 2.793 2.413 2.793.638 0 1.49-.113 1.78-.21l.329-2.231c-.225.04-.638.056-.788.056-.833 0-1.122-.393-1.022-1.041l.588-3.988h1.96l.294-2.002h-1.96l.414-2.793-2.762.976v-.006zM54.965 36.798s1.38.389 3.091.389c2.209 0 3.685-.858 3.934-2.507.184-1.21-.24-2.14-2.189-3.258-.982-.562-1.476-.776-1.41-1.236.074-.505.857-.566 1.296-.566 1.121 0 2.408.285 2.408.285l.344-2.083s-1.157-.321-2.847-.321c-2.094 0-3.57.857-3.8 2.435-.174 1.205.255 2.221 2.154 3.294.948.536 1.486.822 1.407 1.302-.055.337-.464.54-1.342.54-1.341 0-2.617-.326-2.617-.326l-.424 2.058-.005-.006zM41.428 36.972h2.618l1.36-9.257h-2.612l-1.366 9.257zM42.914 26.924h2.612l.31-2.114h-2.613l-.31 2.114zM87.787 27.536c-1.127-.102-3.071-.035-4.836.782l-1.276 8.65h2.617l1.052-7.134s.763-.317 2.124-.158l.32-2.145v.005zM78.748 32.382c-.324 2.196-1.401 2.67-2.234 2.67-1.062 0-1.755-.868-1.476-2.747.324-2.195 1.401-2.67 2.234-2.67 1.077 0 1.755.868 1.476 2.747zM77.556 27.5c-2.992 0-4.682 1.644-5.155 4.866-.33 2.251.633 4.82 3.809 4.82 2.991 0 4.682-1.645 5.155-4.866.33-2.252-.718-4.82-3.809-4.82zM0 39.576l15.571-9.538L25.782 37.1 18.2 12.178 0 39.576zM23.28 4.881c0 2.696-2.135 4.882-4.767 4.882-2.633 0-4.767-2.186-4.767-4.882C13.746 2.185 15.88 0 18.513 0c2.632 0 4.766 2.185 4.766 4.881z"/><path d="M7.987 5.116l7.584 24.922L33.77 2.64l-15.571 9.538L7.987 5.116zM49.725 22.344h-3.012l-5.096-11.57a19.853 19.853 0 01-.837-2.262h-.055a55.577 55.577 0 01-.274 2.527l-1.64 11.284h-3.167L38.456 2.85h3.147l4.956 11.284c.284.649.688 1.752.837 2.262h.055c.02-.214.135-1.373.33-2.609L49.395 2.85h3.176L49.73 22.333l-.005.01zM64.802 12.887l-1.286 8.747c-1.267.587-3.221 1.041-5.42 1.041-3.75-.005-5.64-1.618-5.719-3.987-.174-5.004 5.32-5.458 9.015-5.668l.104-.755c.02-.164.04-.322.035-.46-.04-1.16-.892-1.619-2.363-1.619-1.341 0-3.007.43-4.093.889l-.534-2.507c1.267-.567 3.191-1.052 5.24-1.047 3.126 0 5.011 1.404 5.096 3.967.015.43 0 .889-.085 1.4h.01zm-9.06 5.346c.04 1.103.878 1.828 2.608 1.833.763 0 1.676-.132 2.064-.29l.639-4.412c-2.07.107-5.4.21-5.31 2.874v-.005zM77.76 21.654c-1.37.644-3.12 1.047-5.145 1.042-3.889-.005-6.063-2.298-6.182-5.928-.155-4.713 2.358-9.053 7.643-9.053.867 0 1.715.163 2.144.327l.992-6.832h3.61L77.76 21.654zm-3.594-11.161c-3.132 0-4.268 3.768-4.194 6.168.065 1.91 1.047 3.15 2.838 3.155.628 0 1.36-.158 1.7-.322l1.296-8.73c-.294-.133-1.007-.271-1.64-.271zM92.653 12.913l-1.31 8.762c-1.272.592-3.237 1.046-5.446 1.041-3.764-.005-5.659-1.623-5.733-3.992-.16-5.015 5.355-5.469 9.064-5.678l.11-.756c.02-.163.045-.322.04-.46-.035-1.159-.893-1.618-2.369-1.623-1.346 0-3.016.429-4.108.888l-.528-2.512c1.27-.567 3.205-1.052 5.265-1.052 3.14 0 5.03 1.41 5.105 3.973.015.434 0 .893-.09 1.404v.005zm-9.109 5.356c.035 1.103.873 1.833 2.613 1.838.763 0 1.68-.133 2.069-.296l.653-4.422c-2.079.107-5.42.21-5.335 2.88zm5.973-12.086H86.96l2.393-3.569c.613-.567 1.45-.812 2.139-.812.688 0 1.331.297 1.396.812l-3.376 3.57h.005zM103.981 11.11c-.513-.352-1.231-.566-2.049-.566-2.827 0-4.018 3.4-3.944 5.856.065 2.13 1.177 3.212 2.548 3.212.738 0 1.576-.296 2.194-.7l.743 2.834c-.932.618-2.189.996-3.794.99-2.927 0-5.285-2.164-5.405-5.968-.145-4.749 2.463-9.232 7.534-9.232 1.61 0 2.837.409 3.649 1.001l-1.48 2.568.004.005zM108.778 22.43h-3.615l2.214-14.562h3.625l-2.219 14.562h-.005zm.882-16.885c-1.007 0-1.849-.812-1.874-1.762-.035-1.22.912-2.22 2.263-2.22 1.008 0 1.825.786 1.85 1.73.035 1.22-.887 2.247-2.239 2.247v.005zM123.9 12.938l-1.341 8.783c-1.281.592-3.251 1.046-5.47 1.046-3.779-.005-5.678-1.628-5.743-4.003-.145-5.024 5.394-5.478 9.119-5.693l.11-.755c.02-.164.045-.327.04-.46-.035-1.164-.893-1.624-2.374-1.624-1.351 0-3.031.43-4.128.889l-.524-2.517c1.282-.567 3.226-1.052 5.29-1.052 3.152 0 5.046 1.409 5.116 3.982.01.434 0 .894-.095 1.41v-.006zm-9.164 5.372c.03 1.108.873 1.838 2.618 1.838.768 0 1.69-.133 2.079-.296l.668-4.432c-2.089.107-5.445.21-5.37 2.885l.005.005z"/></g><defs><clipPath id="clip0_933_289"><path fill="#fff" d="M0 0h124v40H0z"/></clipPath></defs></svg>