<svg width="240" height="76" viewBox="0 0 240 76" fill="none" xmlns="http://www.w3.org/2000/svg"><g clip-path="url(#clip0_953_1119)"><path d="M69.105 70.247h5.25l2.885-19.092h4.314l.608-4.016H67.85l-.607 4.016h4.747l-2.885 19.092zM133.597 61.487c-.492 3.192-2.335 5.103-4.979 5.103-1.409 0-2.22-.408-2.22-.408l1.428-9.517s.859-.349 2.152-.349c2.432 0 4.198 1.436 3.619 5.17zm-2.972-9.236c-2.731 0-5.617.476-7.363 1.203l-3.387 22.556h5.066l.878-5.85s1.148.388 2.943.388c5.54 0 9.043-3.25 9.94-9.197.82-5.481-1.901-9.09-8.068-9.09M101.23 61.487c-.492 3.192-2.335 5.103-4.98 5.103-1.408 0-2.219-.408-2.219-.408l1.429-9.517s.859-.349 2.152-.349c2.431 0 4.197 1.436 3.618 5.17zm-2.972-9.236c-2.73 0-5.616.476-7.363 1.203L87.498 76.01h5.066l.879-5.85s1.148.388 2.943.388c5.539 0 9.052-3.25 9.94-9.197.82-5.481-1.901-9.09-8.068-9.09M171.445 49.205l-2.412 16.046c-.444 2.959.849 5.307 4.67 5.307 1.235 0 2.886-.214 3.445-.398l.637-4.24c-.434.078-1.235.107-1.524.107-1.612 0-2.172-.747-1.979-1.979l1.139-7.577h3.793l.569-3.803h-3.793l.801-5.306-5.346 1.853v-.01zM106.384 69.917s2.673.738 5.983.738c4.275 0 7.131-1.63 7.614-4.764.357-2.299-.463-4.065-4.237-6.19-1.901-1.066-2.856-1.474-2.731-2.347.145-.96 1.66-1.077 2.509-1.077 2.172 0 4.661.544 4.661.544l.666-3.959s-2.239-.61-5.51-.61c-4.053 0-6.91 1.629-7.353 4.627-.338 2.29.492 4.22 4.168 6.257 1.834 1.019 2.876 1.562 2.722 2.474-.106.64-.898 1.028-2.596 1.028-2.596 0-5.066-.62-5.066-.62l-.821 3.909-.009-.01zM80.183 70.247h5.067l2.634-17.588h-5.056l-2.645 17.588zM83.06 51.155h5.056l.598-4.016h-5.057l-.598 4.016zM169.911 52.32c-2.181-.195-5.945-.069-9.361 1.483l-2.47 16.434h5.066l2.036-13.552s1.477-.602 4.111-.301l.618-4.075v.01zM152.415 61.526c-.627 4.171-2.712 5.073-4.323 5.073-2.056 0-3.397-1.649-2.857-5.219.627-4.171 2.712-5.074 4.324-5.074 2.084 0 3.396 1.65 2.856 5.22zm-2.306-9.275c-5.791 0-9.062 3.124-9.979 9.246-.637 4.278 1.226 9.158 7.373 9.158 5.79 0 9.062-3.124 9.978-9.246.637-4.278-1.389-9.158-7.372-9.158z" fill="#2297F4"/><path d="M0 75.195l30.137-18.122L49.901 70.49 35.223 23.138 0 75.195zM45.057 9.274c0 5.123-4.13 9.275-9.226 9.275-5.095 0-9.225-4.152-9.225-9.275C26.606 4.152 30.736 0 35.83 0s9.226 4.152 9.226 9.274z" fill="#B4D200"/><path d="M15.46 9.72l14.677 47.353L65.361 5.016 35.223 23.138 15.46 9.72zM96.241 42.453h-5.829L80.55 20.47a37.304 37.304 0 01-1.621-4.298h-.106c-.068.922-.26 2.707-.531 4.802l-3.175 21.44h-6.128l5.443-37h6.09l9.591 21.44c.55 1.231 1.332 3.327 1.622 4.297h.106c.038-.408.26-2.61.637-4.957l3.126-20.78h6.148l-5.501 37.02-.01.019zM125.423 24.486l-2.489 16.619c-2.451 1.115-6.234 1.979-10.49 1.979-7.257-.01-10.914-3.076-11.069-7.577-.338-9.507 10.297-10.37 17.448-10.769l.202-1.435c.039-.31.078-.612.068-.873-.077-2.203-1.727-3.076-4.574-3.076-2.596 0-5.819.815-7.923 1.688l-1.033-4.763c2.451-1.077 6.176-1.999 10.143-1.989 6.05 0 9.698 2.668 9.862 7.538.029.815 0 1.688-.164 2.658h.019zm-17.534 10.157c.077 2.096 1.698 3.474 5.047 3.483 1.477 0 3.243-.252 3.995-.553l1.235-8.382c-4.004.204-10.451.398-10.277 5.462v-.01zM150.504 41.143c-2.654 1.223-6.041 1.99-9.959 1.98-7.527-.01-11.734-4.366-11.966-11.264-.299-8.954 4.565-17.2 14.794-17.2 1.679 0 3.319.31 4.149.62l1.921-12.98h6.986l-5.925 38.844zm-6.958-21.207c-6.06 0-8.26 7.16-8.115 11.72.125 3.628 2.026 5.985 5.491 5.995 1.216 0 2.634-.3 3.29-.611l2.509-16.59c-.569-.252-1.949-.514-3.175-.514zM179.329 24.535l-2.538 16.647c-2.46 1.125-6.263 1.989-10.538 1.98-7.286-.01-10.953-3.086-11.097-7.587-.309-9.527 10.364-10.39 17.544-10.788l.212-1.436c.039-.31.087-.611.077-.873-.067-2.202-1.727-3.075-4.584-3.085-2.605 0-5.838.815-7.951 1.688l-1.023-4.773c2.46-1.077 6.205-1.999 10.19-1.999 6.08 0 9.737 2.678 9.882 7.548.029.825 0 1.698-.174 2.668v.01zM161.698 34.71c.068 2.096 1.689 3.483 5.057 3.493 1.477 0 3.252-.252 4.005-.563l1.264-8.401c-4.024.204-10.49.398-10.326 5.471zm11.561-22.963h-4.95l4.632-6.78c1.187-1.078 2.808-1.543 4.14-1.543 1.332 0 2.576.562 2.702 1.542l-6.533 6.781h.009zM201.255 21.11c-.994-.67-2.384-1.077-3.967-1.077-5.471 0-7.778 6.461-7.633 11.128.125 4.045 2.277 6.102 4.931 6.102 1.428 0 3.05-.563 4.246-1.33l1.438 5.385c-1.804 1.174-4.236 1.892-7.344 1.882-5.664 0-10.229-4.113-10.46-11.34-.28-9.023 4.767-17.54 14.581-17.54 3.117 0 5.491.775 7.064 1.9l-2.866 4.88.01.01zM210.538 42.618h-6.996l4.284-27.668h7.016l-4.294 27.668h-.01zm1.708-32.082c-1.949 0-3.58-1.543-3.628-3.347-.068-2.319 1.766-4.22 4.381-4.22 1.949 0 3.532 1.494 3.58 3.288.068 2.32-1.718 4.27-4.333 4.27v.009zM239.807 24.583l-2.596 16.687c-2.48 1.125-6.292 1.988-10.586 1.988-7.315-.01-10.992-3.094-11.117-7.606-.28-9.546 10.441-10.409 17.65-10.817l.212-1.435c.039-.31.087-.621.077-.873-.067-2.212-1.727-3.085-4.593-3.085-2.615 0-5.867.814-7.99 1.688l-1.014-4.783c2.48-1.077 6.244-1.999 10.239-1.999 6.099 0 9.766 2.678 9.901 7.567.02.825 0 1.698-.183 2.678v-.01zM222.07 34.79c.058 2.105 1.689 3.492 5.066 3.492 1.486 0 3.272-.252 4.024-.562l1.294-8.42c-4.044.203-10.538.397-10.394 5.48l.01.01z" fill="#B4D200"/></g><defs><clipPath id="clip0_953_1119"><path fill="#fff" d="M0 0h240v76H0z"/></clipPath></defs></svg>